<?xml version="1.0" encoding="utf-8"?>
<!-- Generator: Adobe Illustrator 25.4.1, SVG Export Plug-In . SVG Version: 6.00 Build 0)  -->
<svg version="1.1" id="레이어_1" xmlns="http://www.w3.org/2000/svg" xmlns:xlink="http://www.w3.org/1999/xlink" x="0px"
	 y="0px" viewBox="0 0 800 800" style="enable-background:new 0 0 800 800;" xml:space="preserve">
<style type="text/css">
	.st0{fill:#FF2600;}
	.st1{fill:#FF3B19;}
	.st2{fill:#FF5132;}
	.st3{fill:#FF664C;}
	.st4{fill:#FF7C65;}
	.st5{fill:#FF917E;}
	.st6{fill:#FFA797;}
	.st7{fill:#FFBCB1;}
	.st8{fill:#FFD2CA;}
	.st9{fill:#FFE7E3;}
	.st10{fill:#FF5700;}
	.st11{fill:#FF6819;}
	.st12{fill:#FF7832;}
	.st13{fill:#FF894C;}
	.st14{fill:#FF9965;}
	.st15{fill:#FFAA7E;}
	.st16{fill:#FFBA97;}
	.st17{fill:#FFCBB1;}
	.st18{fill:#FFDBCA;}
	.st19{fill:#FFECE3;}
	.st20{fill:#FF3B00;}
	.st21{fill:#FF4E19;}
	.st22{fill:#FF6232;}
	.st23{fill:#FF754C;}
	.st24{fill:#FF8865;}
	.st25{fill:#FF9C7E;}
	.st26{fill:#FFAF97;}
	.st27{fill:#FFC2B1;}
	.st28{fill:#FFD6CA;}
	.st29{fill:#FFE9E3;}
	.st30{fill:#FF7900;}
	.st31{fill:#FF8619;}
	.st32{fill:#FF9332;}
	.st33{fill:#FFA14C;}
	.st34{fill:#FFAE65;}
	.st35{fill:#FFBB7E;}
	.st36{fill:#FFC897;}
	.st37{fill:#FFD6B1;}
	.st38{fill:#FFE3CA;}
	.st39{fill:#FFF0E3;}
	.st40{fill:#FF8700;}
	.st41{fill:#FF9319;}
	.st42{fill:#FF9F32;}
	.st43{fill:#FFAB4C;}
	.st44{fill:#FFB765;}
	.st45{fill:#FFC27E;}
	.st46{fill:#FFCE97;}
	.st47{fill:#FFDAB1;}
	.st48{fill:#FFE6CA;}
	.st49{fill:#FFF2E3;}
	.st50{fill:#FF9300;}
	.st51{fill:#FF9E19;}
	.st52{fill:#FFA832;}
	.st53{fill:#FFB34C;}
	.st54{fill:#FFBE65;}
	.st55{fill:#FFC87E;}
	.st56{fill:#FFD397;}
	.st57{fill:#FFDEB1;}
	.st58{fill:#FFE8CA;}
	.st59{fill:#FFF3E3;}
	.st60{fill:#FFB200;}
	.st61{fill:#FFBA19;}
	.st62{fill:#FFC132;}
	.st63{fill:#FFC94C;}
	.st64{fill:#FFD065;}
	.st65{fill:#FFD87E;}
	.st66{fill:#FFDF97;}
	.st67{fill:#FFE7B1;}
	.st68{fill:#FFEECA;}
	.st69{fill:#FFF6E3;}
	.st70{fill:#FFD000;}
	.st71{fill:#FFD519;}
	.st72{fill:#FFD932;}
	.st73{fill:#FFDE4C;}
	.st74{fill:#FFE365;}
	.st75{fill:#FFE77E;}
	.st76{fill:#FFEC97;}
	.st77{fill:#FFF1B1;}
	.st78{fill:#FFF5CA;}
	.st79{fill:#FFFAE3;}
	.st80{fill:#FFDF00;}
	.st81{fill:#FFE219;}
	.st82{fill:#FFE532;}
	.st83{fill:#FFE84C;}
	.st84{fill:#FFEB65;}
	.st85{fill:#FFEF7E;}
	.st86{fill:#FFF297;}
	.st87{fill:#FFF5B1;}
	.st88{fill:#FFF8CA;}
	.st89{fill:#FFFBE3;}
	.st90{fill:#FFED00;}
	.st91{fill:#FFEF19;}
	.st92{fill:#FFF132;}
	.st93{fill:#FFF24C;}
	.st94{fill:#FFF465;}
	.st95{fill:#FFF67E;}
	.st96{fill:#FFF897;}
	.st97{fill:#FFF9B1;}
	.st98{fill:#FFFBCA;}
	.st99{fill:#FFFDE3;}
	.st100{fill:#DCED00;}
	.st101{fill:#DFEF19;}
	.st102{fill:#E3F132;}
	.st103{fill:#E6F24C;}
	.st104{fill:#EAF465;}
	.st105{fill:#EDF67E;}
	.st106{fill:#F1F897;}
	.st107{fill:#F4F9B1;}
	.st108{fill:#F8FBCA;}
	.st109{fill:#FBFDE3;}
	.st110{fill:#BADF00;}
	.st111{fill:#C1E219;}
	.st112{fill:#C8E532;}
	.st113{fill:#CEE84C;}
	.st114{fill:#D5EB65;}
	.st115{fill:#DCEF7E;}
	.st116{fill:#E3F297;}
	.st117{fill:#E9F5B1;}
	.st118{fill:#F0F8CA;}
	.st119{fill:#F7FBE3;}
	.st120{fill:#70C700;}
	.st121{fill:#7ECD19;}
	.st122{fill:#8CD232;}
	.st123{fill:#9AD84C;}
	.st124{fill:#A8DD65;}
	.st125{fill:#B7E37E;}
	.st126{fill:#C5E897;}
	.st127{fill:#D3EEB1;}
	.st128{fill:#E1F3CA;}
	.st129{fill:#EFF9E3;}
	.st130{fill:#3BBE00;}
	.st131{fill:#4EC419;}
	.st132{fill:#62CB32;}
	.st133{fill:#75D14C;}
	.st134{fill:#88D865;}
	.st135{fill:#9CDE7E;}
	.st136{fill:#AFE597;}
	.st137{fill:#C2EBB1;}
	.st138{fill:#D6F2CA;}
	.st139{fill:#E9F8E3;}
	.st140{fill:#00B600;}
	.st141{fill:#19BD19;}
	.st142{fill:#32C432;}
	.st143{fill:#4CCC4C;}
	.st144{fill:#65D365;}
	.st145{fill:#7EDA7E;}
	.st146{fill:#97E197;}
	.st147{fill:#B1E9B1;}
	.st148{fill:#CAF0CA;}
	.st149{fill:#E3F7E3;}
	.st150{fill:#00BD4F;}
	.st151{fill:#19C460;}
	.st152{fill:#32CA72;}
	.st153{fill:#4CD183;}
	.st154{fill:#65D794;}
	.st155{fill:#7EDEA6;}
	.st156{fill:#97E4B7;}
	.st157{fill:#B1EBC8;}
	.st158{fill:#CAF1DA;}
	.st159{fill:#E3F8EB;}
	.st160{fill:#00C6A0;}
	.st161{fill:#19CCA9;}
	.st162{fill:#32D1B3;}
	.st163{fill:#4CD7BC;}
	.st164{fill:#65DDC5;}
	.st165{fill:#7EE2CF;}
	.st166{fill:#97E8D8;}
	.st167{fill:#B1EEE1;}
	.st168{fill:#CAF3EB;}
	.st169{fill:#E3F9F4;}
	.st170{fill:#00AFCF;}
	.st171{fill:#19B7D4;}
	.st172{fill:#32BFD9;}
	.st173{fill:#4CC7DD;}
	.st174{fill:#65CFE2;}
	.st175{fill:#7ED6E7;}
	.st176{fill:#97DEEC;}
	.st177{fill:#B1E6F0;}
	.st178{fill:#CAEEF5;}
	.st179{fill:#E3F6FA;}
	.st180{fill:#009BCC;}
	.st181{fill:#19A5D1;}
	.st182{fill:#32AFD6;}
	.st183{fill:#4CB9DB;}
	.st184{fill:#65C3E0;}
	.st185{fill:#7ECCE5;}
	.st186{fill:#97D6EA;}
	.st187{fill:#B1E0EF;}
	.st188{fill:#CAEAF4;}
	.st189{fill:#E3F4F9;}
	.st190{fill:#0087C3;}
	.st191{fill:#1993C9;}
	.st192{fill:#329FCF;}
	.st193{fill:#4CABD5;}
	.st194{fill:#65B7DB;}
	.st195{fill:#7EC2E0;}
	.st196{fill:#97CEE6;}
	.st197{fill:#B1DAEC;}
	.st198{fill:#CAE6F2;}
	.st199{fill:#E3F2F8;}
	.st200{fill:#0074BF;}
	.st201{fill:#1982C5;}
	.st202{fill:#3290CC;}
	.st203{fill:#4C9DD2;}
	.st204{fill:#65ABD8;}
	.st205{fill:#7EB9DF;}
	.st206{fill:#97C7E5;}
	.st207{fill:#B1D4EB;}
	.st208{fill:#CAE2F2;}
	.st209{fill:#E3F0F8;}
	.st210{fill:#0040BA;}
	.st211{fill:#1953C1;}
	.st212{fill:#3266C8;}
	.st213{fill:#4C79CE;}
	.st214{fill:#658CD5;}
	.st215{fill:#7E9EDC;}
	.st216{fill:#97B1E3;}
	.st217{fill:#B1C4E9;}
	.st218{fill:#CAD7F0;}
	.st219{fill:#E3EAF7;}
	.st220{fill:#0229BA;}
	.st221{fill:#1B3EC1;}
	.st222{fill:#3453C8;}
	.st223{fill:#4D68CE;}
	.st224{fill:#667DD5;}
	.st225{fill:#7F93DC;}
	.st226{fill:#98A8E3;}
	.st227{fill:#B1BDE9;}
	.st228{fill:#CAD2F0;}
	.st229{fill:#E3E7F7;}
	.st230{fill:#4D22B3;}
	.st231{fill:#5F38BB;}
	.st232{fill:#704EC2;}
	.st233{fill:#8263CA;}
	.st234{fill:#9379D1;}
	.st235{fill:#A58FD9;}
	.st236{fill:#B6A5E0;}
	.st237{fill:#C8BAE8;}
	.st238{fill:#D9D0EF;}
	.st239{fill:#EBE6F7;}
	.st240{fill:#7524AF;}
	.st241{fill:#833AB7;}
	.st242{fill:#904FBF;}
	.st243{fill:#9E65C7;}
	.st244{fill:#AC7BCF;}
	.st245{fill:#B990D6;}
	.st246{fill:#C7A6DE;}
	.st247{fill:#D5BCE6;}
	.st248{fill:#E2D1EE;}
	.st249{fill:#F0E7F6;}
	.st250{fill:#A92BBC;}
	.st251{fill:#B140C3;}
	.st252{fill:#BA55C9;}
	.st253{fill:#C26AD0;}
	.st254{fill:#CB7FD7;}
	.st255{fill:#D393DD;}
	.st256{fill:#DCA8E4;}
	.st257{fill:#E4BDEB;}
	.st258{fill:#EDD2F1;}
	.st259{fill:#F5E7F8;}
	.st260{fill:#C82DB3;}
	.st261{fill:#CD42BB;}
	.st262{fill:#D357C2;}
	.st263{fill:#D86BCA;}
	.st264{fill:#DE80D1;}
	.st265{fill:#E395D9;}
	.st266{fill:#E9AAE0;}
	.st267{fill:#EEBEE8;}
	.st268{fill:#F4D3EF;}
	.st269{fill:#F9E8F7;}
	.st270{fill:#D2278D;}
	.st271{fill:#D63C98;}
	.st272{fill:#DB52A3;}
	.st273{fill:#DF67AF;}
	.st274{fill:#E47CBA;}
	.st275{fill:#E892C5;}
	.st276{fill:#EDA7D0;}
	.st277{fill:#F1BCDC;}
	.st278{fill:#F6D2E7;}
	.st279{fill:#FAE7F2;}
	.st280{fill:#E5276F;}
	.st281{fill:#E83C7D;}
	.st282{fill:#EA528B;}
	.st283{fill:#ED679A;}
	.st284{fill:#EF7CA8;}
	.st285{fill:#F292B6;}
	.st286{fill:#F4A7C4;}
	.st287{fill:#F7BCD3;}
	.st288{fill:#F9D2E1;}
	.st289{fill:#FCE7EF;}
	.st290{fill:#F22540;}
	.st291{fill:#F33B53;}
	.st292{fill:#F55066;}
	.st293{fill:#F66679;}
	.st294{fill:#F77B8C;}
	.st295{fill:#F9919E;}
	.st296{fill:#FAA6B1;}
	.st297{fill:#FBBCC4;}
	.st298{fill:#FDD1D7;}
	.st299{fill:#FEE7EA;}
</style>
<g id="BACKGROUND">
</g>
<g>
	<g>
		<g>
			<g>
				<path class="st0" d="M632,662.8l24,27.3c20.8-18.3,39.1-38.3,55-59.6l-29.2-21.7C667.4,628.1,650.8,646.2,632,662.8z"/>
			</g>
		</g>
		<g>
			<g>
				<path class="st1" d="M608,635.5l24,27.3c18.8-16.6,35.4-34.7,49.8-54.1l-29.2-21.7C639.7,604.4,624.8,620.7,608,635.5z"/>
			</g>
		</g>
		<g>
			<g>
				<path class="st2" d="M584,608.3l24,27.3c16.9-14.9,31.8-31.1,44.7-48.5l-29.2-21.7C612.1,580.7,598.9,595.1,584,608.3z"/>
			</g>
		</g>
		<g>
			<g>
				<path class="st3" d="M559.9,581l24,27.3c14.9-13.2,28.1-27.5,39.5-42.9l-29.2-21.7C584.4,557.1,572.9,569.6,559.9,581z"/>
			</g>
		</g>
		<g>
			<g>
				<path class="st4" d="M535.9,553.8l24,27.3c13-11.4,24.4-24,34.4-37.3l-29.2-21.7C556.7,533.4,547,544.1,535.9,553.8z"/>
			</g>
		</g>
		<g>
			<g>
				<path class="st5" d="M511.9,526.5l24,27.3c11-9.7,20.8-20.4,29.2-31.7L536,500.4C529,509.7,521,518.5,511.9,526.5z"/>
			</g>
		</g>
		<g>
			<g>
				<path class="st6" d="M487.9,499.3l24,27.3c9.1-8,17.1-16.8,24.1-26.1l-29.2-21.7C501.3,486.1,495,493,487.9,499.3z"/>
			</g>
		</g>
		<g>
			<g>
				<path class="st7" d="M463.9,472l24,27.3c7.1-6.3,13.5-13.2,18.9-20.5l-29.2-21.7C473.7,462.4,469.1,467.4,463.9,472z"/>
			</g>
		</g>
		<g>
			<g>
				<path class="st8" d="M439.8,444.8l24,27.3c5.2-4.6,9.8-9.6,13.8-15l-29.2-21.7C446,438.7,443.1,441.9,439.8,444.8z"/>
			</g>
		</g>
		<g>
			<g>
				<path class="st9" d="M419.3,413.7c-1,1.4-2.2,2.6-3.5,3.8l24,27.3c3.3-2.9,6.1-6,8.6-9.4L419.3,413.7z"/>
			</g>
		</g>
	</g>
	<g>
		<g>
			<g>
				<path class="st10" d="M719.2,545.4l33,15.1c11.5-25.2,20.1-50.9,26-76.8l-35.5-7.9C737.4,499.3,729.6,522.6,719.2,545.4z"/>
			</g>
		</g>
		<g>
			<g>
				<path class="st11" d="M686.2,530.3l33,15.1c10.4-22.8,18.2-46.1,23.5-69.7l-35.5-7.9C702.5,488.9,695.5,509.9,686.2,530.3z"/>
			</g>
		</g>
		<g>
			<g>
				<path class="st12" d="M653.1,515.2l33,15.1c9.4-20.4,16.4-41.4,21.1-62.5l-35.5-7.9C667.6,478.6,661.4,497.1,653.1,515.2z"/>
			</g>
		</g>
		<g>
			<g>
				<path class="st13" d="M620.1,500l33,15.1c8.3-18.1,14.5-36.6,18.7-55.3l-35.5-7.9C632.7,468.2,627.3,484.3,620.1,500z"/>
			</g>
		</g>
		<g>
			<g>
				<path class="st14" d="M587.1,484.9l33,15.1c7.2-15.7,12.6-31.8,16.2-48.1l-35.5-7.9C597.8,457.8,593.2,471.5,587.1,484.9z"/>
			</g>
		</g>
		<g>
			<g>
				<path class="st15" d="M554,469.8l33,15.1c6.1-13.4,10.7-27.1,13.8-40.9l-35.5-7.9C562.9,447.5,559.1,458.8,554,469.8z"/>
			</g>
		</g>
		<g>
			<g>
				<path class="st16" d="M521,454.7l33,15.1c5-11,8.8-22.3,11.4-33.7l-35.5-7.9C527.9,437.1,525,446,521,454.7z"/>
			</g>
		</g>
		<g>
			<g>
				<path class="st17" d="M488,439.5l33,15.1c4-8.7,6.9-17.5,8.9-26.5l-35.5-7.9C493,426.8,490.9,433.2,488,439.5z"/>
			</g>
		</g>
		<g>
			<g>
				<path class="st18" d="M455,424.4l33,15.1c2.9-6.3,5-12.8,6.5-19.3l-35.5-7.9C458.1,416.4,456.8,420.4,455,424.4z"/>
			</g>
		</g>
		<g>
			<g>
				<path class="st19" d="M423.6,404.4c-0.4,1.6-0.9,3.3-1.6,4.9l33,15.1c1.8-4,3.2-8,4.1-12.1L423.6,404.4z"/>
			</g>
		</g>
	</g>
	<g>
		<g>
			<g>
				<path class="st20" d="M681.8,608.7l29.2,21.7c16.5-22.2,30.3-45.6,41.4-69.8l-33-15.1C709.2,567.4,696.7,588.6,681.8,608.7z"/>
			</g>
		</g>
		<g>
			<g>
				<path class="st21" d="M652.6,587l29.2,21.7c15-20.1,27.4-41.3,37.5-63.2l-33-15.1C677.2,550,666,569,652.6,587z"/>
			</g>
		</g>
		<g>
			<g>
				<path class="st22" d="M623.4,565.4l29.2,21.7c13.4-18,24.6-37.1,33.6-56.7l-33-15.1C645.2,532.6,635.3,549.4,623.4,565.4z"/>
			</g>
		</g>
		<g>
			<g>
				<path class="st23" d="M594.3,543.7l29.2,21.7c11.9-16,21.8-32.8,29.7-50.2l-33-15.1C613.2,515.2,604.6,529.8,594.3,543.7z"/>
			</g>
		</g>
		<g>
			<g>
				<path class="st24" d="M565.1,522l29.2,21.7c10.3-13.9,18.9-28.5,25.9-43.6l-33-15.1C581.2,497.8,573.9,510.2,565.1,522z"/>
			</g>
		</g>
		<g>
			<g>
				<path class="st25" d="M536,500.4l29.2,21.7c8.8-11.8,16.1-24.2,22-37.1l-33-15.1C549.2,480.4,543.2,490.6,536,500.4z"/>
			</g>
		</g>
		<g>
			<g>
				<path class="st26" d="M506.8,478.7l29.2,21.7c7.2-9.7,13.3-20,18.1-30.6l-33-15.1C517.2,463,512.5,471.1,506.8,478.7z"/>
			</g>
		</g>
		<g>
			<g>
				<path class="st27" d="M477.6,457l29.2,21.7c5.7-7.7,10.4-15.7,14.3-24l-33-15.1C485.2,445.6,481.8,451.5,477.6,457z"/>
			</g>
		</g>
		<g>
			<g>
				<path class="st28" d="M448.5,435.4l29.2,21.7c4.1-5.6,7.6-11.4,10.4-17.5l-33-15.1C453.2,428.2,451.1,431.9,448.5,435.4z"/>
			</g>
		</g>
		<g>
			<g>
				<path class="st29" d="M421.9,409.3c-0.7,1.5-1.6,3-2.6,4.4l29.2,21.7c2.6-3.5,4.8-7.2,6.5-11L421.9,409.3z"/>
			</g>
		</g>
	</g>
	<g>
		<g>
			<g>
				<path class="st30" d="M742.7,475.8l35.5,7.9c6-27,9.1-54,9.4-80.6l-36.3-0.4C750.9,426.8,748.1,451.3,742.7,475.8z"/>
			</g>
		</g>
		<g>
			<g>
				<path class="st31" d="M707.2,467.8l35.5,7.9c5.5-24.5,8.3-48.9,8.5-73l-36.3-0.4C714.6,424,712.1,445.9,707.2,467.8z"/>
			</g>
		</g>
		<g>
			<g>
				<path class="st32" d="M671.7,459.9l35.5,7.9c4.9-21.9,7.4-43.9,7.6-65.5l-36.3-0.4C678.3,421.1,676.1,440.5,671.7,459.9z"/>
			</g>
		</g>
		<g>
			<g>
				<path class="st33" d="M636.3,452l35.5,7.9c4.3-19.4,6.5-38.8,6.8-57.9l-36.3-0.4C642,418.2,640.1,435.1,636.3,452z"/>
			</g>
		</g>
		<g>
			<g>
				<path class="st34" d="M600.8,444l35.5,7.9c3.8-16.9,5.7-33.8,5.9-50.4l-36.3-0.4C605.7,415.3,604.1,429.7,600.8,444z"/>
			</g>
		</g>
		<g>
			<g>
				<path class="st35" d="M565.4,436.1l35.5,7.9c3.2-14.4,4.8-28.7,5-42.8l-36.3-0.4C569.4,412.5,568,424.3,565.4,436.1z"/>
			</g>
		</g>
		<g>
			<g>
				<path class="st36" d="M529.9,428.2l35.5,7.9c2.6-11.8,4-23.6,4.1-35.3l-36.3-0.4C533.1,409.6,532,418.9,529.9,428.2z"/>
			</g>
		</g>
		<g>
			<g>
				<path class="st37" d="M494.5,420.2l35.5,7.9c2.1-9.3,3.1-18.6,3.2-27.8l-36.3-0.4C496.8,406.7,496,413.5,494.5,420.2z"/>
			</g>
		</g>
		<g>
			<g>
				<path class="st38" d="M459,412.3l35.5,7.9c1.5-6.8,2.3-13.5,2.4-20.2l-36.3-0.4C460.5,403.8,460,408.1,459,412.3z"/>
			</g>
		</g>
		<g>
			<g>
				<path class="st39" d="M424.2,399.3c0,1.7-0.2,3.4-0.6,5.1l35.5,7.9c0.9-4.2,1.4-8.5,1.5-12.7L424.2,399.3z"/>
			</g>
		</g>
	</g>
	<g>
		<g>
			<g>
				<g>
					<path class="st40" d="M751.1,402.7l36.3,0.4c0.3-27.7-2.3-54.7-7.5-80.8l-35.6,7.2C749,353.2,751.4,377.7,751.1,402.7z"/>
				</g>
			</g>
		</g>
		<g>
			<g>
				<g>
					<path class="st41" d="M714.8,402.3l36.3,0.4c0.3-25.1-2.1-49.6-6.8-73.2l-35.6,7.2C712.9,357.9,715,379.9,714.8,402.3z"/>
				</g>
			</g>
		</g>
		<g>
			<g>
				<g>
					<path class="st42" d="M678.5,402l36.3,0.4c0.2-22.5-1.9-44.4-6.1-65.6l-35.6,7.2C676.8,362.6,678.7,382.1,678.5,402z"/>
				</g>
			</g>
		</g>
		<g>
			<g>
				<g>
					<path class="st43" d="M642.1,401.6l36.3,0.4c0.2-19.9-1.7-39.3-5.4-58.1l-35.6,7.2C640.7,367.4,642.3,384.3,642.1,401.6z"/>
				</g>
			</g>
		</g>
		<g>
			<g>
				<g>
					<path class="st44" d="M605.8,401.2l36.3,0.4c0.2-17.3-1.4-34.2-4.7-50.5l-35.6,7.2C604.6,372.1,606,386.5,605.8,401.2z"/>
				</g>
			</g>
		</g>
		<g>
			<g>
				<g>
					<path class="st45" d="M569.5,400.8l36.3,0.4c0.2-14.7-1.2-29.1-4-42.9l-35.6,7.2C568.5,376.8,569.6,388.7,569.5,400.8z"/>
				</g>
			</g>
		</g>
		<g>
			<g>
				<g>
					<path class="st46" d="M533.1,400.4l36.3,0.4c0.1-12.1-1-24-3.3-35.4l-35.6,7.2C532.3,381.6,533.2,390.9,533.1,400.4z"/>
				</g>
			</g>
		</g>
		<g>
			<g>
				<g>
					<path class="st47" d="M496.8,400l36.3,0.4c0.1-9.5-0.8-18.8-2.6-27.8l-35.6,7.2C496.2,386.3,496.9,393.1,496.8,400z"/>
				</g>
			</g>
		</g>
		<g>
			<g>
				<g>
					<path class="st48" d="M460.5,399.6l36.3,0.4c0.1-6.9-0.6-13.7-1.9-20.3l-35.6,7.2C460.1,391.1,460.5,395.3,460.5,399.6z"/>
				</g>
			</g>
		</g>
		<g>
			<g>
				<g>
					<path class="st49" d="M423.7,394.1c0.3,1.7,0.5,3.4,0.5,5.1l36.3,0.4c0-4.3-0.4-8.6-1.2-12.7L423.7,394.1z"/>
				</g>
			</g>
		</g>
	</g>
	<g>
		<g>
			<g>
				<g>
					<path class="st50" d="M744.2,329.5l35.6-7.2c-5.5-27.1-13.6-53-24.2-77.4l-33.4,14.4C731.9,281.5,739.3,305,744.2,329.5z"/>
				</g>
			</g>
		</g>
		<g>
			<g>
				<g>
					<path class="st51" d="M708.6,336.7l35.6-7.2c-5-24.6-12.4-48-21.9-70.2l-33.4,14.4C697.5,293.6,704.2,314.7,708.6,336.7z"/>
				</g>
			</g>
		</g>
		<g>
			<g>
				<g>
					<path class="st52" d="M673,343.9l35.6-7.2c-4.4-22-11.1-43.1-19.6-62.9l-33.4,14.4C663.2,305.8,669,324.4,673,343.9z"/>
				</g>
			</g>
		</g>
		<g>
			<g>
				<g>
					<path class="st53" d="M637.4,351.1l35.6-7.2c-3.9-19.5-9.8-38.1-17.4-55.7l-33.4,14.4C628.8,317.9,633.9,334.1,637.4,351.1z"/>
				</g>
			</g>
		</g>
		<g>
			<g>
				<g>
					<path class="st54" d="M601.8,358.3l35.6-7.2c-3.4-17-8.5-33.2-15.1-48.4l-33.4,14.4C594.5,330.1,598.8,343.8,601.8,358.3z"/>
				</g>
			</g>
		</g>
		<g>
			<g>
				<g>
					<path class="st55" d="M566.1,365.4l35.6-7.2c-2.9-14.4-7.3-28.2-12.9-41.2l-33.4,14.4C560.2,342.2,563.7,353.5,566.1,365.4z"/>
				</g>
			</g>
		</g>
		<g>
			<g>
				<g>
					<path class="st56" d="M530.5,372.6l35.6-7.2c-2.4-11.9-6-23.2-10.6-33.9l-33.4,14.4C525.8,354.3,528.6,363.3,530.5,372.6z"/>
				</g>
			</g>
		</g>
		<g>
			<g>
				<g>
					<path class="st57" d="M494.9,379.8l35.6-7.2c-1.9-9.3-4.7-18.3-8.3-26.7l-33.4,14.4C491.5,366.5,493.5,373,494.9,379.8z"/>
				</g>
			</g>
		</g>
		<g>
			<g>
				<g>
					<path class="st58" d="M459.3,387l35.6-7.2c-1.4-6.8-3.4-13.3-6.1-19.4l-33.4,14.4C457.1,378.6,458.4,382.7,459.3,387z"/>
				</g>
			</g>
		</g>
		<g>
			<g>
				<g>
					<path class="st59" d="M422.1,389.2c0.7,1.6,1.2,3.2,1.5,4.9l35.6-7.2c-0.9-4.3-2.1-8.3-3.8-12.2L422.1,389.2z"/>
				</g>
			</g>
		</g>
	</g>
	<g>
		<g>
			<g>
				<path class="st60" d="M722.2,259.4l33.3-14.4c-11-25.4-24.4-49-39.7-70.7l-29.6,21C700.2,215,712.3,236.4,722.2,259.4z"/>
			</g>
		</g>
		<g>
			<g>
				<path class="st61" d="M688.9,273.8l33.3-14.4c-10-23-22.1-44.4-36-64.1l-29.6,21C669.1,234,680,253.2,688.9,273.8z"/>
			</g>
		</g>
		<g>
			<g>
				<path class="st62" d="M655.5,288.2l33.3-14.4c-8.9-20.6-19.8-39.8-32.3-57.5l-29.6,21C638,253,647.6,270,655.5,288.2z"/>
			</g>
		</g>
		<g>
			<g>
				<path class="st63" d="M622.2,302.7l33.3-14.4C647.6,270,638,253,627,237.4l-29.6,21C607,272,615.3,286.8,622.2,302.7z"/>
			</g>
		</g>
		<g>
			<g>
				<path class="st64" d="M588.9,317.1l33.3-14.4c-6.9-15.9-15.2-30.7-24.9-44.2l-29.6,21C575.9,291,583,303.6,588.9,317.1z"/>
			</g>
		</g>
		<g>
			<g>
				<path class="st65" d="M555.5,331.5l33.3-14.4c-5.8-13.5-13-26.1-21.1-37.6l-29.6,21C544.8,310,550.7,320.4,555.5,331.5z"/>
			</g>
		</g>
		<g>
			<g>
				<path class="st66" d="M522.2,345.9l33.3-14.4c-4.8-11.1-10.7-21.5-17.4-31l-29.6,21C513.8,329.1,518.4,337.2,522.2,345.9z"/>
			</g>
		</g>
		<g>
			<g>
				<path class="st67" d="M488.8,360.4l33.3-14.4c-3.8-8.7-8.4-16.9-13.7-24.4l-29.6,21C482.7,348.1,486.1,354,488.8,360.4z"/>
			</g>
		</g>
		<g>
			<g>
				<path class="st68" d="M455.5,374.8l33.3-14.4c-2.8-6.4-6.1-12.3-10-17.7l-29.6,21C451.7,367.1,453.8,370.8,455.5,374.8z"/>
			</g>
		</g>
		<g>
			<g>
				<path class="st69" d="M419.6,384.7c1,1.4,1.8,2.9,2.5,4.5l33.3-14.4c-1.7-4-3.8-7.7-6.2-11.1L419.6,384.7z"/>
			</g>
		</g>
	</g>
	<g>
		<g>
			<g>
				<path class="st70" d="M686.2,195.3l29.6-21c-16-22.6-34-42.9-53.6-60.9l-24.6,26.7C655.3,156.5,671.6,174.9,686.2,195.3z"/>
			</g>
		</g>
		<g>
			<g>
				<path class="st71" d="M656.5,216.4l29.6-21c-14.5-20.4-30.8-38.9-48.6-55.2L613,166.9C628.9,181.5,643.5,198.1,656.5,216.4z"/>
			</g>
		</g>
		<g>
			<g>
				<path class="st72" d="M626.9,237.4l29.6-21c-13-18.3-27.6-34.8-43.5-49.5l-24.6,26.7C602.5,206.6,615.4,221.2,626.9,237.4z"/>
			</g>
		</g>
		<g>
			<g>
				<path class="st73" d="M597.3,258.5l29.6-21c-11.5-16.2-24.5-30.8-38.5-43.8l-24.6,26.7C576,231.7,587.3,244.4,597.3,258.5z"/>
			</g>
		</g>
		<g>
			<g>
				<path class="st74" d="M567.7,279.5l29.6-21c-10-14.1-21.3-26.8-33.5-38.1l-24.6,26.7C549.6,256.7,559.2,267.5,567.7,279.5z"/>
			</g>
		</g>
		<g>
			<g>
				<path class="st75" d="M538.1,300.6l29.6-21c-8.5-12-18.1-22.8-28.5-32.4l-24.6,26.7C523.2,281.8,531.1,290.7,538.1,300.6z"/>
			</g>
		</g>
		<g>
			<g>
				<path class="st76" d="M508.5,321.6l29.6-21c-7-9.9-14.9-18.8-23.5-26.7L490,300.6C496.7,306.8,502.9,313.8,508.5,321.6z"/>
			</g>
		</g>
		<g>
			<g>
				<path class="st77" d="M478.8,342.6l29.6-21c-5.5-7.8-11.7-14.8-18.5-21l-24.6,26.7C470.3,331.9,474.8,337,478.8,342.6z"/>
			</g>
		</g>
		<g>
			<g>
				<path class="st78" d="M449.2,363.7l29.6-21c-4-5.7-8.5-10.8-13.4-15.3l-24.6,26.7C443.9,356.9,446.7,360.1,449.2,363.7z"/>
			</g>
		</g>
		<g>
			<g>
				<path class="st79" d="M416.2,380.8c1.2,1.1,2.4,2.4,3.4,3.9l29.6-21c-2.5-3.5-5.3-6.7-8.4-9.6L416.2,380.8z"/>
			</g>
		</g>
	</g>
	<g>
		<g>
			<g>
				<path class="st80" d="M637.6,140.2l24.6-26.7C641.8,94.7,620,78.6,597.1,65l-18.5,31.3C599.3,108.6,619.1,123.2,637.6,140.2z"/>
			</g>
		</g>
		<g>
			<g>
				<path class="st81" d="M613,166.9l24.6-26.7c-18.5-17-38.2-31.6-59-43.9l-18.5,31.3C578.7,138.6,596.4,151.7,613,166.9z"/>
			</g>
		</g>
		<g>
			<g>
				<path class="st82" d="M588.4,193.7l24.6-26.7c-16.5-15.2-34.3-28.3-52.9-39.4l-18.5,31.3C558,168.6,573.7,180.2,588.4,193.7z"/>
			</g>
		</g>
		<g>
			<g>
				<path class="st83" d="M563.8,220.4l24.6-26.7c-14.6-13.5-30.3-25.1-46.8-34.8l-18.5,31.3C537.4,198.6,551,208.7,563.8,220.4z"/>
			</g>
		</g>
		<g>
			<g>
				<path class="st84" d="M539.2,247.2l24.6-26.7c-12.7-11.7-26.4-21.8-40.7-30.3l-18.5,31.3C516.7,228.6,528.3,237.2,539.2,247.2z"
					/>
			</g>
		</g>
		<g>
			<g>
				<path class="st85" d="M514.6,273.9l24.6-26.7c-10.8-10-22.4-18.5-34.6-25.8l-18.5,31.3C496.1,258.6,505.7,265.7,514.6,273.9z"/>
			</g>
		</g>
		<g>
			<g>
				<path class="st86" d="M490,300.6l24.6-26.7c-8.9-8.2-18.5-15.3-28.5-21.2l-18.5,31.3C475.4,288.6,483,294.2,490,300.6z"/>
			</g>
		</g>
		<g>
			<g>
				<path class="st87" d="M465.4,327.4l24.6-26.7c-7-6.5-14.5-12-22.4-16.7l-18.5,31.3C454.8,318.6,460.3,322.7,465.4,327.4z"/>
			</g>
		</g>
		<g>
			<g>
				<path class="st88" d="M440.8,354.1l24.6-26.7c-5.1-4.7-10.6-8.7-16.3-12.2l-18.5,31.3C434.2,348.6,437.6,351.2,440.8,354.1z"/>
			</g>
		</g>
		<g>
			<g>
				<path class="st89" d="M412.1,377.8c1.5,0.9,2.8,1.9,4.1,3.1l24.6-26.7c-3.2-2.9-6.6-5.5-10.2-7.6L412.1,377.8z"/>
			</g>
		</g>
	</g>
	<g>
		<g>
			<g>
				<path class="st90" d="M578.5,96.4L597,65.1c-23.8-14.1-48.5-25.3-73.7-33.8l-11.6,34.4C534.6,73.4,557,83.6,578.5,96.4z"/>
			</g>
		</g>
		<g>
			<g>
				<path class="st91" d="M560,127.6l18.5-31.3c-21.6-12.8-44-23-66.8-30.7l-11.6,34.4C520.6,107,540.7,116.2,560,127.6z"/>
			</g>
		</g>
		<g>
			<g>
				<path class="st92" d="M541.5,158.9l18.5-31.3c-19.4-11.4-39.4-20.6-59.9-27.5l-11.6,34.4C506.7,140.7,524.4,148.8,541.5,158.9z"
					/>
			</g>
		</g>
		<g>
			<g>
				<path class="st93" d="M523,190.2l18.5-31.3c-17.1-10.1-34.9-18.2-53-24.3L476.9,169C492.7,174.3,508.2,181.4,523,190.2z"/>
			</g>
		</g>
		<g>
			<g>
				<path class="st94" d="M504.5,221.4l18.5-31.3c-14.9-8.8-30.3-15.8-46.1-21.2l-11.6,34.4C478.8,208,491.9,213.9,504.5,221.4z"/>
			</g>
		</g>
		<g>
			<g>
				<path class="st95" d="M486.1,252.7l18.5-31.3c-12.7-7.5-25.8-13.5-39.2-18l-11.6,34.4C464.8,241.6,475.6,246.5,486.1,252.7z"/>
			</g>
		</g>
		<g>
			<g>
				<path class="st96" d="M467.6,284l18.5-31.3c-10.4-6.2-21.3-11.1-32.3-14.8l-11.6,34.4C450.8,275.2,459.4,279.1,467.6,284z"/>
			</g>
		</g>
		<g>
			<g>
				<path class="st97" d="M449.1,315.2l18.5-31.3c-8.2-4.9-16.7-8.7-25.4-11.7l-11.6,34.4C436.9,308.9,443.1,311.7,449.1,315.2z"/>
			</g>
		</g>
		<g>
			<g>
				<path class="st98" d="M430.6,346.5l18.5-31.3c-6-3.5-12.2-6.4-18.5-8.5L419,341.2C422.9,342.5,426.8,344.3,430.6,346.5z"/>
			</g>
		</g>
		<g>
			<g>
				<path class="st99" d="M407.4,375.6c1.6,0.5,3.2,1.3,4.7,2.2l18.5-31.3c-3.7-2.2-7.6-4-11.6-5.3L407.4,375.6z"/>
			</g>
		</g>
	</g>
	<g>
		<g>
			<g>
				<path class="st100" d="M511.7,65.7l11.6-34.4c-26.2-8.8-52.7-14.7-79.1-17.8L440,49.6C463.9,52.4,487.9,57.7,511.7,65.7z"/>
			</g>
		</g>
		<g>
			<g>
				<path class="st101" d="M500.1,100.2l11.6-34.4c-23.8-8-47.8-13.3-71.7-16.1l-4.2,36.1C457.3,88.2,478.8,93,500.1,100.2z"/>
			</g>
		</g>
		<g>
			<g>
				<path class="st102" d="M488.5,134.6l11.6-34.4c-21.3-7.2-42.8-11.9-64.3-14.5l-4.2,36.1C450.6,124,469.7,128.3,488.5,134.6z"/>
			</g>
		</g>
		<g>
			<g>
				<path class="st103" d="M476.9,169l11.6-34.4c-18.9-6.3-37.9-10.6-56.9-12.8l-4.2,36.1C444,159.9,460.5,163.5,476.9,169z"/>
			</g>
		</g>
		<g>
			<g>
				<path class="st104" d="M465.3,203.5l11.6-34.4c-16.4-5.5-33-9.2-49.5-11.1l-4.2,36.1C437.3,195.7,451.4,198.8,465.3,203.5z"/>
			</g>
		</g>
		<g>
			<g>
				<path class="st105" d="M453.7,237.9l11.6-34.4c-13.9-4.7-28-7.8-42.1-9.5l-4.2,36.1C430.6,231.5,442.3,234,453.7,237.9z"/>
			</g>
		</g>
		<g>
			<g>
				<path class="st106" d="M442.1,272.3l11.6-34.4c-11.5-3.9-23.1-6.4-34.7-7.8l-4.2,36.1C424,267.3,433.1,269.3,442.1,272.3z"/>
			</g>
		</g>
		<g>
			<g>
				<path class="st107" d="M430.6,306.8l11.6-34.4c-9-3-18.2-5.1-27.3-6.1l-4.2,36.1C417.3,303.1,424,304.5,430.6,306.8z"/>
			</g>
		</g>
		<g>
			<g>
				<path class="st108" d="M419,341.2l11.6-34.4c-6.6-2.2-13.2-3.7-19.9-4.5l-4.2,36.1C410.7,338.9,414.8,339.8,419,341.2z"/>
			</g>
		</g>
		<g>
			<g>
				<path class="st109" d="M402.3,374.5c1.7,0.2,3.4,0.6,5,1.1l11.6-34.4c-4.1-1.4-8.3-2.3-12.4-2.8L402.3,374.5z"/>
			</g>
		</g>
	</g>
	<g>
		<g>
			<g>
				<path class="st110" d="M440,49.7l4.2-36.1c-27.5-3.2-54.6-3.4-81.1-0.9l3.4,36.2C390.5,46.6,415.1,46.8,440,49.7z"/>
			</g>
		</g>
		<g>
			<g>
				<path class="st111" d="M435.8,85.8l4.2-36.1c-24.9-2.9-49.5-3.1-73.5-0.9l3.4,36.2C391.4,83,413.5,83.2,435.8,85.8z"/>
			</g>
		</g>
		<g>
			<g>
				<path class="st112" d="M431.6,121.9l4.2-36.1c-22.3-2.6-44.4-2.8-65.9-0.8l3.4,36.2C392.3,119.4,411.8,119.6,431.6,121.9z"/>
			</g>
		</g>
		<g>
			<g>
				<path class="st113" d="M427.4,158l4.2-36.1c-19.8-2.3-39.3-2.5-58.3-0.7l3.4,36.2C393.3,155.8,410.2,156,427.4,158z"/>
			</g>
		</g>
		<g>
			<g>
				<path class="st114" d="M423.2,194.1l4.2-36.1c-17.2-2-34.2-2.1-50.7-0.6l3.4,36.2C394.2,192.2,408.6,192.4,423.2,194.1z"/>
			</g>
		</g>
		<g>
			<g>
				<path class="st115" d="M419.1,230.1l4.2-36.1c-14.6-1.7-29-1.8-43.1-0.5l3.4,36.2C395.1,228.6,407,228.7,419.1,230.1z"/>
			</g>
		</g>
		<g>
			<g>
				<path class="st116" d="M414.9,266.2l4.2-36.1c-12-1.4-23.9-1.5-35.5-0.4l3.4,36.2C396.1,265.1,405.4,265.1,414.9,266.2z"/>
			</g>
		</g>
		<g>
			<g>
				<path class="st117" d="M410.7,302.3l4.2-36.1c-9.5-1.1-18.8-1.2-27.9-0.3l3.4,36.2C397,301.5,403.8,301.5,410.7,302.3z"/>
			</g>
		</g>
		<g>
			<g>
				<path class="st118" d="M406.5,338.4l4.2-36.1c-6.9-0.8-13.7-0.9-20.3-0.2l3.4,36.2C397.9,337.9,402.2,337.9,406.5,338.4z"/>
			</g>
		</g>
		<g>
			<g>
				<path class="st119" d="M397.2,374.4c1.7-0.2,3.4-0.1,5.2,0.1l4.2-36.1c-4.3-0.5-8.6-0.5-12.8-0.1L397.2,374.4z"/>
			</g>
		</g>
	</g>
	<g>
		<g>
			<g>
				<path class="st120" d="M366.5,48.9L363,12.8c-27.5,2.6-54.1,8-79.5,15.9l10.9,34.7C317.4,56.2,341.5,51.3,366.5,48.9z"/>
			</g>
		</g>
		<g>
			<g>
				<path class="st121" d="M369.9,85.1l-3.4-36.2c-25,2.4-49.1,7.3-72.1,14.5L305.2,98C325.9,91.6,347.5,87.2,369.9,85.1z"/>
			</g>
		</g>
		<g>
			<g>
				<path class="st122" d="M373.3,121.3l-3.4-36.2c-22.4,2.1-44,6.5-64.6,13l10.9,34.7C334.4,127,353.5,123.1,373.3,121.3z"/>
			</g>
		</g>
		<g>
			<g>
				<path class="st123" d="M376.7,157.4l-3.4-36.2c-19.8,1.9-38.9,5.8-57.2,11.5l10.9,34.7C342.8,162.4,359.5,159.1,376.7,157.4z"/>
			</g>
		</g>
		<g>
			<g>
				<path class="st124" d="M380.1,193.6l-3.4-36.2c-17.2,1.6-33.9,5-49.7,10l10.9,34.7C351.3,197.9,365.5,195,380.1,193.6z"/>
			</g>
		</g>
		<g>
			<g>
				<path class="st125" d="M383.5,229.8l-3.4-36.2c-14.6,1.4-28.8,4.3-42.3,8.5l10.9,34.7C359.8,233.3,371.5,230.9,383.5,229.8z"/>
			</g>
		</g>
		<g>
			<g>
				<path class="st126" d="M386.9,265.9l-3.4-36.2c-12.1,1.1-23.7,3.5-34.8,7l10.9,34.7C368.3,268.7,377.5,266.8,386.9,265.9z"/>
			</g>
		</g>
		<g>
			<g>
				<path class="st127" d="M390.4,302.1l-3.4-36.2c-9.5,0.9-18.7,2.8-27.4,5.5l10.9,34.7C376.8,304.1,383.4,302.8,390.4,302.1z"/>
			</g>
		</g>
		<g>
			<g>
				<path class="st128" d="M393.8,338.3l-3.4-36.2c-6.9,0.7-13.6,2-20,4l10.9,34.7C385.3,339.5,389.4,338.7,393.8,338.3z"/>
			</g>
		</g>
		<g>
			<g>
				<path class="st129" d="M392.1,375.5c1.6-0.5,3.3-0.8,5.1-1l-3.4-36.2c-4.3,0.4-8.5,1.3-12.5,2.5L392.1,375.5z"/>
			</g>
		</g>
	</g>
	<g>
		<g>
			<g>
				<path class="st130" d="M294.4,63.4l-10.9-34.7c-26.4,8.3-51.3,19.1-74.5,32.1l17.8,31.7C247.9,80.8,270.5,70.9,294.4,63.4z"/>
			</g>
		</g>
		<g>
			<g>
				<path class="st131" d="M305.3,98.1l-10.9-34.7c-23.9,7.5-46.5,17.3-67.5,29.1l17.8,31.7C263.6,113.6,283.8,104.8,305.3,98.1z"/>
			</g>
		</g>
		<g>
			<g>
				<path class="st132" d="M316.1,132.8l-10.9-34.7c-21.5,6.7-41.7,15.5-60.5,26.1l17.8,31.7C279.2,146.5,297.1,138.7,316.1,132.8z"
					/>
			</g>
		</g>
		<g>
			<g>
				<path class="st133" d="M327,167.4l-10.9-34.7c-19,5.9-36.9,13.7-53.6,23.1l17.8,31.7C294.9,179.4,310.5,172.6,327,167.4z"/>
			</g>
		</g>
		<g>
			<g>
				<path class="st134" d="M337.8,202.1L327,167.4c-16.5,5.2-32.1,11.9-46.6,20.1l17.8,31.7C310.6,212.3,323.8,206.5,337.8,202.1z"
					/>
			</g>
		</g>
		<g>
			<g>
				<path class="st135" d="M348.7,236.8l-10.9-34.7c-14,4.4-27.3,10.2-39.6,17.1l17.8,31.7C326.2,245.2,337.1,240.4,348.7,236.8z"/>
			</g>
		</g>
		<g>
			<g>
				<path class="st136" d="M359.6,271.5l-10.9-34.7c-11.6,3.6-22.5,8.4-32.6,14.1l17.8,31.7C341.9,278,350.5,274.3,359.6,271.5z"/>
			</g>
		</g>
		<g>
			<g>
				<path class="st137" d="M370.4,306.1l-10.9-34.7c-9.1,2.8-17.7,6.6-25.7,11.1l17.8,31.7C357.5,310.9,363.8,308.2,370.4,306.1z"/>
			</g>
		</g>
		<g>
			<g>
				<path class="st138" d="M381.3,340.8l-10.9-34.7c-6.6,2.1-12.9,4.8-18.7,8.1l17.8,31.7C373.2,343.8,377.1,342.1,381.3,340.8z"/>
			</g>
		</g>
		<g>
			<g>
				<path class="st139" d="M387.4,377.5c1.5-0.8,3.1-1.5,4.7-2l-10.9-34.7c-4.2,1.3-8.1,3-11.7,5.1L387.4,377.5z"/>
			</g>
		</g>
	</g>
	<g>
		<g>
			<g>
				<path class="st140" d="M226.9,92.6L209.1,61c-24.1,13.6-46.2,29.3-66.2,46.9l24,27.3C185.1,119.2,205.1,104.9,226.9,92.6z"/>
			</g>
		</g>
		<g>
			<g>
				<path class="st141" d="M244.8,124.3l-17.8-31.7c-21.8,12.3-41.9,26.6-60,42.5l24,27.3C207.2,148.1,225.2,135.3,244.8,124.3z"/>
			</g>
		</g>
		<g>
			<g>
				<path class="st142" d="M262.6,155.9l-17.8-31.7c-19.6,11-37.5,23.8-53.8,38.1l24,27.3C229.4,177,245.3,165.7,262.6,155.9z"/>
			</g>
		</g>
		<g>
			<g>
				<path class="st143" d="M280.4,187.6l-17.8-31.7c-17.3,9.8-33.2,21.1-47.6,33.7l24,27.3C251.5,205.9,265.3,196.1,280.4,187.6z"/>
			</g>
		</g>
		<g>
			<g>
				<path class="st144" d="M298.2,219.2l-17.8-31.7c-15.1,8.5-28.9,18.4-41.4,29.3l24,27.3C273.7,234.8,285.4,226.5,298.2,219.2z"/>
			</g>
		</g>
		<g>
			<g>
				<path class="st145" d="M316.1,250.9l-17.8-31.7c-12.8,7.2-24.6,15.6-35.2,24.9l24,27.3C295.8,263.8,305.5,256.8,316.1,250.9z"/>
			</g>
		</g>
		<g>
			<g>
				<path class="st146" d="M333.9,282.5l-17.8-31.7c-10.6,5.9-20.2,12.9-29,20.6l24,27.3C318,292.7,325.6,287.2,333.9,282.5z"/>
			</g>
		</g>
		<g>
			<g>
				<path class="st147" d="M351.7,314.2l-17.8-31.7c-8.3,4.7-15.9,10.1-22.8,16.2l24,27.3C340.1,321.6,345.7,317.6,351.7,314.2z"/>
			</g>
		</g>
		<g>
			<g>
				<path class="st148" d="M369.6,345.9l-17.8-31.7c-6,3.4-11.6,7.4-16.6,11.8l24,27.3C362.3,350.5,365.8,348,369.6,345.9z"/>
			</g>
		</g>
		<g>
			<g>
				<path class="st149" d="M383.2,380.5c1.3-1.1,2.7-2.1,4.2-3l-17.8-31.7c-3.8,2.1-7.3,4.6-10.4,7.4L383.2,380.5z"/>
			</g>
		</g>
	</g>
	<g>
		<g>
			<g>
				<path class="st150" d="M167,135.2l-24-27.3c-20.8,18.3-39.1,38.3-55,59.6l29.2,21.7C131.6,169.9,148.2,151.8,167,135.2z"/>
			</g>
		</g>
		<g>
			<g>
				<path class="st151" d="M191,162.5l-24-27.3c-18.8,16.6-35.4,34.7-49.8,54.1l29.2,21.7C159.3,193.6,174.2,177.3,191,162.5z"/>
			</g>
		</g>
		<g>
			<g>
				<path class="st152" d="M215,189.7l-24-27.3c-16.9,14.9-31.8,31.1-44.7,48.5l29.2,21.7C186.9,217.3,200.1,202.9,215,189.7z"/>
			</g>
		</g>
		<g>
			<g>
				<path class="st153" d="M239.1,217l-24-27.3c-14.9,13.2-28.1,27.5-39.5,42.9l29.2,21.7C214.6,240.9,226.1,228.4,239.1,217z"/>
			</g>
		</g>
		<g>
			<g>
				<path class="st154" d="M263.1,244.2l-24-27.3c-13,11.4-24.4,24-34.4,37.3l29.2,21.7C242.3,264.6,252,253.9,263.1,244.2z"/>
			</g>
		</g>
		<g>
			<g>
				<path class="st155" d="M287.1,271.5l-24-27.3c-11,9.7-20.8,20.4-29.2,31.7l29.2,21.7C270,288.3,278,279.5,287.1,271.5z"/>
			</g>
		</g>
		<g>
			<g>
				<path class="st156" d="M311.1,298.7l-24-27.3c-9.1,8-17.1,16.8-24.1,26.1l29.2,21.7C297.7,311.9,304,305,311.1,298.7z"/>
			</g>
		</g>
		<g>
			<g>
				<path class="st157" d="M335.1,326l-24-27.3c-7.1,6.3-13.5,13.2-18.9,20.5l29.2,21.7C325.3,335.6,329.9,330.6,335.1,326z"/>
			</g>
		</g>
		<g>
			<g>
				<path class="st158" d="M359.2,353.2l-24-27.3c-5.2,4.6-9.8,9.6-13.8,15l29.2,21.7C353,359.3,355.9,356.1,359.2,353.2z"/>
			</g>
		</g>
		<g>
			<g>
				<path class="st159" d="M379.7,384.3c1-1.4,2.2-2.6,3.5-3.8l-24-27.3c-3.3,2.9-6.1,6-8.6,9.4L379.7,384.3z"/>
			</g>
		</g>
	</g>
	<g>
		<g>
			<g>
				<path class="st160" d="M117.2,189.3l-29.2-21.7c-16.5,22.2-30.3,45.6-41.4,69.8l33,15.1C89.8,230.6,102.3,209.4,117.2,189.3z"/>
			</g>
		</g>
		<g>
			<g>
				<path class="st161" d="M146.4,211l-29.2-21.7c-15,20.1-27.4,41.3-37.5,63.2l33,15.1C121.8,248,133,229,146.4,211z"/>
			</g>
		</g>
		<g>
			<g>
				<path class="st162" d="M175.6,232.6L146.4,211c-13.4,18-24.6,37.1-33.6,56.7l33,15.1C153.8,265.4,163.7,248.6,175.6,232.6z"/>
			</g>
		</g>
		<g>
			<g>
				<path class="st163" d="M204.7,254.3l-29.2-21.7c-11.9,16-21.8,32.8-29.7,50.2l33,15.1C185.8,282.8,194.4,268.2,204.7,254.3z"/>
			</g>
		</g>
		<g>
			<g>
				<path class="st164" d="M233.9,276l-29.2-21.7c-10.3,13.9-18.9,28.5-25.9,43.6l33,15.1C217.8,300.2,225.1,287.8,233.9,276z"/>
			</g>
		</g>
		<g>
			<g>
				<path class="st165" d="M263,297.6L233.9,276c-8.8,11.8-16.1,24.2-22,37.1l33,15.1C249.8,317.6,255.8,307.4,263,297.6z"/>
			</g>
		</g>
		<g>
			<g>
				<path class="st166" d="M292.2,319.3L263,297.6c-7.2,9.7-13.3,20-18.1,30.6l33,15.1C281.8,335,286.5,326.9,292.2,319.3z"/>
			</g>
		</g>
		<g>
			<g>
				<path class="st167" d="M321.4,341l-29.2-21.7c-5.7,7.7-10.4,15.7-14.3,24l33,15.1C313.8,352.4,317.2,346.5,321.4,341z"/>
			</g>
		</g>
		<g>
			<g>
				<path class="st168" d="M350.5,362.6L321.4,341c-4.1,5.6-7.6,11.4-10.4,17.5l33,15.1C345.8,369.8,347.9,366.1,350.5,362.6z"/>
			</g>
		</g>
		<g>
			<g>
				<path class="st169" d="M377.1,388.7c0.7-1.5,1.6-3,2.6-4.4l-29.2-21.7c-2.6,3.5-4.8,7.2-6.5,11L377.1,388.7z"/>
			</g>
		</g>
	</g>
	<g>
		<g>
			<g>
				<path class="st170" d="M79.8,252.6l-33-15.1c-11.5,25.2-20.1,50.9-26,76.8l35.5,7.9C61.6,298.7,69.4,275.4,79.8,252.6z"/>
			</g>
		</g>
		<g>
			<g>
				<path class="st171" d="M112.8,267.7l-33-15.1c-10.4,22.8-18.2,46.1-23.5,69.7l35.5,7.9C96.5,309.1,103.5,288.1,112.8,267.7z"/>
			</g>
		</g>
		<g>
			<g>
				<path class="st172" d="M145.9,282.8l-33-15.1c-9.4,20.4-16.4,41.4-21.1,62.5l35.5,7.9C131.4,319.4,137.6,300.9,145.9,282.8z"/>
			</g>
		</g>
		<g>
			<g>
				<path class="st173" d="M178.9,298l-33-15.1c-8.3,18.1-14.5,36.6-18.7,55.3l35.5,7.9C166.3,329.8,171.7,313.7,178.9,298z"/>
			</g>
		</g>
		<g>
			<g>
				<path class="st174" d="M211.9,313.1l-33-15.1c-7.2,15.7-12.6,31.8-16.2,48.1l35.5,7.9C201.2,340.2,205.8,326.5,211.9,313.1z"/>
			</g>
		</g>
		<g>
			<g>
				<path class="st175" d="M245,328.2l-33-15.1c-6.1,13.4-10.7,27.1-13.8,40.9l35.5,7.9C236.1,350.5,239.9,339.2,245,328.2z"/>
			</g>
		</g>
		<g>
			<g>
				<path class="st176" d="M278,343.3l-33-15.1c-5,11-8.8,22.3-11.4,33.7l35.5,7.9C271.1,360.9,274,352,278,343.3z"/>
			</g>
		</g>
		<g>
			<g>
				<path class="st177" d="M311,358.5l-33-15.1c-4,8.7-6.9,17.5-8.9,26.5l35.5,7.9C306,371.2,308.1,364.8,311,358.5z"/>
			</g>
		</g>
		<g>
			<g>
				<path class="st178" d="M344,373.6l-33-15.1c-2.9,6.3-5,12.8-6.5,19.3l35.5,7.9C340.9,381.6,342.2,377.6,344,373.6z"/>
			</g>
		</g>
		<g>
			<g>
				<path class="st179" d="M375.4,393.6c0.4-1.6,0.9-3.3,1.6-4.9l-33-15.1c-1.8,4-3.2,8-4.1,12.1L375.4,393.6z"/>
			</g>
		</g>
	</g>
	<g>
		<g>
			<g>
				<path class="st180" d="M56.3,322.2l-35.5-7.9c-6,27-9.1,54-9.4,80.6l36.3,0.4C48.1,371.2,50.9,346.7,56.3,322.2z"/>
			</g>
		</g>
		<g>
			<g>
				<path class="st181" d="M91.8,330.2l-35.5-7.9c-5.5,24.5-8.3,48.9-8.5,73l36.3,0.4C84.4,374,86.9,352.1,91.8,330.2z"/>
			</g>
		</g>
		<g>
			<g>
				<path class="st182" d="M127.3,338.1l-35.5-7.9c-4.9,21.9-7.4,43.9-7.7,65.5l36.3,0.4C120.7,376.9,122.9,357.5,127.3,338.1z"/>
			</g>
		</g>
		<g>
			<g>
				<path class="st183" d="M162.7,346l-35.5-7.9c-4.3,19.4-6.5,38.8-6.8,57.9l36.3,0.4C157,379.8,158.9,362.9,162.7,346z"/>
			</g>
		</g>
		<g>
			<g>
				<path class="st184" d="M198.2,354l-35.5-7.9c-3.8,16.9-5.7,33.8-5.9,50.4l36.3,0.4C193.3,382.7,194.9,368.3,198.2,354z"/>
			</g>
		</g>
		<g>
			<g>
				<path class="st185" d="M233.6,361.9l-35.5-7.9c-3.2,14.4-4.8,28.7-5,42.8l36.3,0.4C229.6,385.5,231,373.7,233.6,361.9z"/>
			</g>
		</g>
		<g>
			<g>
				<path class="st186" d="M269.1,369.8l-35.5-7.9c-2.6,11.8-4,23.6-4.1,35.3l36.3,0.4C265.9,388.4,267,379.1,269.1,369.8z"/>
			</g>
		</g>
		<g>
			<g>
				<path class="st187" d="M304.5,377.8l-35.5-7.9c-2.1,9.3-3.1,18.6-3.2,27.8l36.3,0.4C302.2,391.3,303,384.5,304.5,377.8z"/>
			</g>
		</g>
		<g>
			<g>
				<path class="st188" d="M340,385.7l-35.5-7.9c-1.5,6.8-2.3,13.5-2.4,20.2l36.3,0.4C338.5,394.2,339,389.9,340,385.7z"/>
			</g>
		</g>
		<g>
			<g>
				<path class="st189" d="M374.8,398.7c0-1.7,0.2-3.4,0.6-5.1l-35.5-7.9c-0.9,4.2-1.4,8.5-1.5,12.7L374.8,398.7z"/>
			</g>
		</g>
	</g>
	<g>
		<g>
			<g>
				<path class="st190" d="M47.9,395.3l-36.3-0.4c-0.3,27.7,2.3,54.7,7.5,80.8l35.6-7.2C50,444.8,47.6,420.3,47.9,395.3z"/>
			</g>
		</g>
		<g>
			<g>
				<path class="st191" d="M84.2,395.7l-36.3-0.4c-0.3,25.1,2.1,49.6,6.8,73.2l35.6-7.2C86.1,440.1,84,418.1,84.2,395.7z"/>
			</g>
		</g>
		<g>
			<g>
				<path class="st192" d="M120.5,396l-36.3-0.4c-0.2,22.5,1.9,44.4,6.1,65.6l35.6-7.2C122.2,435.4,120.3,415.9,120.5,396z"/>
			</g>
		</g>
		<g>
			<g>
				<path class="st193" d="M156.9,396.4l-36.3-0.4c-0.2,19.9,1.7,39.3,5.4,58.1l35.6-7.2C158.3,430.6,156.7,413.7,156.9,396.4z"/>
			</g>
		</g>
		<g>
			<g>
				<path class="st194" d="M193.2,396.8l-36.3-0.4c-0.2,17.3,1.4,34.2,4.7,50.5l35.6-7.2C194.4,425.9,193,411.5,193.2,396.8z"/>
			</g>
		</g>
		<g>
			<g>
				<path class="st195" d="M229.5,397.2l-36.3-0.4c-0.2,14.7,1.2,29.1,4,42.9l35.6-7.2C230.5,421.2,229.4,409.3,229.5,397.2z"/>
			</g>
		</g>
		<g>
			<g>
				<path class="st196" d="M265.9,397.6l-36.3-0.4c-0.1,12.1,1,24,3.3,35.4l35.6-7.2C266.7,416.4,265.8,407.1,265.9,397.6z"/>
			</g>
		</g>
		<g>
			<g>
				<path class="st197" d="M302.2,398l-36.3-0.4c-0.1,9.5,0.8,18.8,2.6,27.8l35.6-7.2C302.8,411.7,302.1,404.9,302.2,398z"/>
			</g>
		</g>
		<g>
			<g>
				<path class="st198" d="M338.5,398.4l-36.3-0.4c-0.1,6.9,0.6,13.7,1.9,20.3l35.6-7.2C338.9,406.9,338.5,402.7,338.5,398.4z"/>
			</g>
		</g>
		<g>
			<g>
				<path class="st199" d="M375.3,403.9c-0.3-1.7-0.5-3.4-0.5-5.1l-36.3-0.4c0,4.3,0.4,8.6,1.2,12.7L375.3,403.9z"/>
			</g>
		</g>
	</g>
	<g>
		<g>
			<g>
				<path class="st200" d="M54.8,468.5l-35.6,7.2c5.5,27.1,13.6,53,24.2,77.4l33.4-14.4C67.1,516.5,59.7,493,54.8,468.5z"/>
			</g>
		</g>
		<g>
			<g>
				<path class="st201" d="M90.4,461.3l-35.6,7.2c5,24.6,12.4,48,21.9,70.2l33.4-14.4C101.5,504.4,94.8,483.3,90.4,461.3z"/>
			</g>
		</g>
		<g>
			<g>
				<path class="st202" d="M126,454.1l-35.6,7.2c4.4,22,11.1,43.1,19.6,62.9l33.4-14.4C135.8,492.2,130,473.6,126,454.1z"/>
			</g>
		</g>
		<g>
			<g>
				<path class="st203" d="M161.6,446.9l-35.6,7.2c3.9,19.5,9.8,38.1,17.4,55.7l33.4-14.4C170.2,480.1,165.1,463.9,161.6,446.9z"/>
			</g>
		</g>
		<g>
			<g>
				<path class="st204" d="M197.2,439.7l-35.6,7.2c3.4,17,8.5,33.2,15.1,48.4l33.4-14.4C204.5,467.9,200.2,454.2,197.2,439.7z"/>
			</g>
		</g>
		<g>
			<g>
				<path class="st205" d="M232.9,432.6l-35.6,7.2c2.9,14.4,7.3,28.2,12.9,41.2l33.4-14.4C238.8,455.8,235.3,444.5,232.9,432.6z"/>
			</g>
		</g>
		<g>
			<g>
				<path class="st206" d="M268.5,425.4l-35.6,7.2c2.4,11.9,6,23.2,10.6,33.9l33.4-14.4C273.2,443.7,270.4,434.7,268.5,425.4z"/>
			</g>
		</g>
		<g>
			<g>
				<path class="st207" d="M304.1,418.2l-35.6,7.2c1.9,9.3,4.7,18.3,8.3,26.7l33.4-14.4C307.5,431.5,305.5,425,304.1,418.2z"/>
			</g>
		</g>
		<g>
			<g>
				<path class="st208" d="M339.7,411l-35.6,7.2c1.4,6.8,3.4,13.3,6.1,19.4l33.4-14.4C341.9,419.4,340.6,415.3,339.7,411z"/>
			</g>
		</g>
		<g>
			<g>
				<path class="st209" d="M376.9,408.8c-0.7-1.6-1.2-3.2-1.5-4.9l-35.6,7.2c0.9,4.3,2.1,8.3,3.8,12.2L376.9,408.8z"/>
			</g>
		</g>
	</g>
	<g>
		<g>
			<g>
				<path class="st210" d="M76.8,538.6L43.4,553c11,25.4,24.4,49,39.7,70.7l29.6-21C98.8,583,86.7,561.6,76.8,538.6z"/>
			</g>
		</g>
		<g>
			<g>
				<path class="st211" d="M110.1,524.2l-33.3,14.4c10,23,22.1,44.4,36,64.1l29.6-21C129.9,564,119,544.8,110.1,524.2z"/>
			</g>
		</g>
		<g>
			<g>
				<path class="st212" d="M143.5,509.8l-33.3,14.4c8.9,20.6,19.8,39.8,32.3,57.5l29.6-21C161,545,151.4,528,143.5,509.8z"/>
			</g>
		</g>
		<g>
			<g>
				<path class="st213" d="M176.8,495.3l-33.3,14.4C151.4,528,161,545,172,560.6l29.6-21C192,526,183.7,511.2,176.8,495.3z"/>
			</g>
		</g>
		<g>
			<g>
				<path class="st214" d="M210.1,480.9l-33.3,14.4c6.9,15.9,15.2,30.7,24.9,44.2l29.6-21C223.1,507,216,494.4,210.1,480.9z"/>
			</g>
		</g>
		<g>
			<g>
				<path class="st215" d="M243.5,466.5l-33.3,14.4c5.8,13.5,13,26.1,21.1,37.6l29.6-21C254.2,488,248.3,477.6,243.5,466.5z"/>
			</g>
		</g>
		<g>
			<g>
				<path class="st216" d="M276.8,452.1l-33.3,14.4c4.8,11.1,10.7,21.5,17.4,31l29.6-21C285.2,468.9,280.6,460.8,276.8,452.1z"/>
			</g>
		</g>
		<g>
			<g>
				<path class="st217" d="M310.2,437.6l-33.3,14.4c3.8,8.7,8.4,16.9,13.7,24.4l29.6-21C316.3,449.9,312.9,444,310.2,437.6z"/>
			</g>
		</g>
		<g>
			<g>
				<path class="st218" d="M343.5,423.2l-33.3,14.4c2.8,6.4,6.1,12.3,10,17.7l29.6-21C347.3,430.9,345.2,427.2,343.5,423.2z"/>
			</g>
		</g>
		<g>
			<g>
				<path class="st219" d="M379.4,413.3c-1-1.4-1.8-2.9-2.5-4.5l-33.3,14.4c1.7,4,3.8,7.7,6.2,11.1L379.4,413.3z"/>
			</g>
		</g>
	</g>
	<g>
		<g>
			<g>
				<path class="st220" d="M112.8,602.7l-29.6,21c16,22.6,34,42.9,53.6,60.9l24.6-26.7C143.7,641.5,127.4,623.1,112.8,602.7z"/>
			</g>
		</g>
		<g>
			<g>
				<path class="st221" d="M142.5,581.6l-29.6,21c14.5,20.4,30.8,38.9,48.6,55.2l24.6-26.7C170.1,616.5,155.5,599.9,142.5,581.6z"/>
			</g>
		</g>
		<g>
			<g>
				<path class="st222" d="M172.1,560.6l-29.6,21c13,18.3,27.6,34.8,43.5,49.5l24.6-26.7C196.5,591.4,183.6,576.8,172.1,560.6z"/>
			</g>
		</g>
		<g>
			<g>
				<path class="st223" d="M201.7,539.5l-29.6,21c11.5,16.2,24.5,30.8,38.5,43.8l24.6-26.7C223,566.3,211.7,553.6,201.7,539.5z"/>
			</g>
		</g>
		<g>
			<g>
				<path class="st224" d="M231.3,518.5l-29.6,21c10,14.1,21.3,26.8,33.5,38.1l24.6-26.7C249.4,541.3,239.8,530.5,231.3,518.5z"/>
			</g>
		</g>
		<g>
			<g>
				<path class="st225" d="M260.9,497.4l-29.6,21c8.5,12,18.1,22.8,28.5,32.4l24.6-26.7C275.8,516.2,267.9,507.3,260.9,497.4z"/>
			</g>
		</g>
		<g>
			<g>
				<path class="st226" d="M290.5,476.4l-29.6,21c7,9.9,14.9,18.8,23.5,26.7l24.6-26.7C302.3,491.2,296.1,484.2,290.5,476.4z"/>
			</g>
		</g>
		<g>
			<g>
				<path class="st227" d="M320.2,455.4l-29.6,21c5.5,7.8,11.7,14.8,18.5,21l24.6-26.7C328.7,466.1,324.2,461,320.2,455.4z"/>
			</g>
		</g>
		<g>
			<g>
				<path class="st228" d="M349.8,434.3l-29.6,21c4,5.7,8.5,10.8,13.4,15.3l24.6-26.7C355.1,441.1,352.3,437.9,349.8,434.3z"/>
			</g>
		</g>
		<g>
			<g>
				<path class="st229" d="M382.8,417.2c-1.2-1.1-2.4-2.4-3.4-3.9l-29.6,21c2.5,3.5,5.3,6.7,8.4,9.6L382.8,417.2z"/>
			</g>
		</g>
	</g>
	<g>
		<g>
			<g>
				<path class="st230" d="M161.4,657.8l-24.6,26.7c20.4,18.7,42.2,34.9,65.1,48.4l18.5-31.3C199.7,689.4,179.9,674.8,161.4,657.8z"
					/>
			</g>
		</g>
		<g>
			<g>
				<path class="st231" d="M186,631.1l-24.6,26.7c18.5,17,38.2,31.6,59,43.9l18.5-31.3C220.3,659.4,202.6,646.3,186,631.1z"/>
			</g>
		</g>
		<g>
			<g>
				<path class="st232" d="M210.6,604.3L186,631.1c16.5,15.2,34.3,28.3,52.9,39.4l18.5-31.3C241,629.4,225.3,617.8,210.6,604.3z"/>
			</g>
		</g>
		<g>
			<g>
				<path class="st233" d="M235.2,577.6l-24.6,26.7c14.6,13.5,30.3,25.1,46.8,34.8l18.5-31.3C261.6,599.4,248,589.3,235.2,577.6z"/>
			</g>
		</g>
		<g>
			<g>
				<path class="st234" d="M259.8,550.8l-24.6,26.7c12.7,11.7,26.4,21.8,40.7,30.3l18.5-31.3C282.3,569.4,270.7,560.8,259.8,550.8z"
					/>
			</g>
		</g>
		<g>
			<g>
				<path class="st235" d="M284.4,524.1l-24.6,26.7c10.8,10,22.4,18.5,34.6,25.8l18.5-31.3C302.9,539.4,293.3,532.3,284.4,524.1z"/>
			</g>
		</g>
		<g>
			<g>
				<path class="st236" d="M309,497.4l-24.6,26.7c8.9,8.2,18.5,15.3,28.5,21.2l18.5-31.3C323.6,509.4,316,503.8,309,497.4z"/>
			</g>
		</g>
		<g>
			<g>
				<path class="st237" d="M333.6,470.6L309,497.4c7,6.5,14.5,12,22.4,16.7l18.5-31.3C344.2,479.4,338.7,475.3,333.6,470.6z"/>
			</g>
		</g>
		<g>
			<g>
				<path class="st238" d="M358.2,443.9l-24.6,26.7c5.1,4.7,10.6,8.7,16.3,12.1l18.5-31.3C364.8,449.4,361.4,446.8,358.2,443.9z"/>
			</g>
		</g>
		<g>
			<g>
				<path class="st239" d="M386.9,420.2c-1.5-0.9-2.8-1.9-4.1-3.1l-24.6,26.7c3.2,2.9,6.6,5.5,10.2,7.6L386.9,420.2z"/>
			</g>
		</g>
	</g>
	<g>
		<g>
			<g>
				<path class="st240" d="M220.5,701.6L202,732.9c23.8,14.1,48.5,25.3,73.7,33.8l11.6-34.4C264.4,724.6,242,714.4,220.5,701.6z"/>
			</g>
		</g>
		<g>
			<g>
				<path class="st241" d="M239,670.4l-18.5,31.3c21.6,12.8,44,23,66.8,30.7l11.6-34.4C278.4,691,258.3,681.8,239,670.4z"/>
			</g>
		</g>
		<g>
			<g>
				<path class="st242" d="M257.5,639.1L239,670.4c19.4,11.4,39.4,20.6,59.9,27.5l11.6-34.4C292.3,657.3,274.6,649.2,257.5,639.1z"
					/>
			</g>
		</g>
		<g>
			<g>
				<path class="st243" d="M276,607.8l-18.5,31.3c17.1,10.1,34.9,18.2,53,24.3l11.6-34.4C306.3,623.7,290.8,616.6,276,607.8z"/>
			</g>
		</g>
		<g>
			<g>
				<path class="st244" d="M294.5,576.6L276,607.8c14.9,8.8,30.3,15.8,46.1,21.2l11.6-34.4C320.2,590,307.1,584.1,294.5,576.6z"/>
			</g>
		</g>
		<g>
			<g>
				<path class="st245" d="M312.9,545.3l-18.5,31.3c12.7,7.5,25.8,13.5,39.2,18l11.6-34.4C334.2,556.4,323.4,551.5,312.9,545.3z"/>
			</g>
		</g>
		<g>
			<g>
				<path class="st246" d="M331.4,514l-18.5,31.3c10.4,6.2,21.3,11.1,32.3,14.8l11.6-34.4C348.2,522.8,339.6,518.9,331.4,514z"/>
			</g>
		</g>
		<g>
			<g>
				<path class="st247" d="M349.9,482.8L331.4,514c8.2,4.9,16.7,8.7,25.4,11.7l11.6-34.4C362.1,489.1,355.9,486.3,349.9,482.8z"/>
			</g>
		</g>
		<g>
			<g>
				<path class="st248" d="M368.4,451.5l-18.5,31.3c6,3.5,12.2,6.4,18.5,8.5l11.6-34.4C376.1,455.5,372.2,453.7,368.4,451.5z"/>
			</g>
		</g>
		<g>
			<g>
				<path class="st249" d="M391.6,422.4c-1.6-0.5-3.2-1.3-4.7-2.2l-18.5,31.3c3.7,2.2,7.6,4,11.6,5.3L391.6,422.4z"/>
			</g>
		</g>
	</g>
	<g>
		<g>
			<g>
				<path class="st250" d="M287.3,732.3l-11.6,34.4c26.2,8.8,52.7,14.7,79.1,17.8l4.2-36.1C335.1,745.6,311.1,740.3,287.3,732.3z"/>
			</g>
		</g>
		<g>
			<g>
				<path class="st251" d="M298.9,697.8l-11.6,34.4c23.8,8,47.8,13.3,71.7,16.1l4.2-36.1C341.7,709.8,320.2,705,298.9,697.8z"/>
			</g>
		</g>
		<g>
			<g>
				<path class="st252" d="M310.5,663.4l-11.6,34.4c21.3,7.2,42.8,11.9,64.3,14.5l4.2-36.1C348.4,674,329.3,669.7,310.5,663.4z"/>
			</g>
		</g>
		<g>
			<g>
				<path class="st253" d="M322.1,629l-11.6,34.4c18.9,6.3,37.9,10.6,56.9,12.8l4.2-36.1C355,638.1,338.5,634.5,322.1,629z"/>
			</g>
		</g>
		<g>
			<g>
				<path class="st254" d="M333.7,594.5L322.1,629c16.4,5.5,33,9.2,49.5,11.1l4.2-36.1C361.7,602.3,347.6,599.2,333.7,594.5z"/>
			</g>
		</g>
		<g>
			<g>
				<path class="st255" d="M345.3,560.1l-11.6,34.4c13.9,4.7,28,7.8,42.1,9.5l4.2-36.1C368.4,566.5,356.7,564,345.3,560.1z"/>
			</g>
		</g>
		<g>
			<g>
				<path class="st256" d="M356.9,525.7l-11.6,34.4c11.5,3.9,23.1,6.4,34.7,7.8l4.2-36.1C375,530.7,365.9,528.7,356.9,525.7z"/>
			</g>
		</g>
		<g>
			<g>
				<path class="st257" d="M368.4,491.2l-11.6,34.4c9,3,18.2,5.1,27.3,6.1l4.2-36.1C381.7,494.9,375,493.5,368.4,491.2z"/>
			</g>
		</g>
		<g>
			<g>
				<path class="st258" d="M380,456.8l-11.6,34.4c6.6,2.2,13.2,3.7,19.9,4.5l4.2-36.1C388.3,459.1,384.2,458.2,380,456.8z"/>
			</g>
		</g>
		<g>
			<g>
				<path class="st259" d="M396.7,423.5c-1.7-0.2-3.4-0.6-5-1.1L380,456.8c4.1,1.4,8.3,2.3,12.4,2.8L396.7,423.5z"/>
			</g>
		</g>
	</g>
	<g>
		<g>
			<g>
				<path class="st260" d="M359,748.3l-4.2,36.1c27.5,3.2,54.6,3.4,81.1,0.9l-3.4-36.2C408.5,751.4,383.9,751.2,359,748.3z"/>
			</g>
		</g>
		<g>
			<g>
				<path class="st261" d="M363.2,712.2l-4.2,36.1c24.9,2.9,49.5,3.1,73.5,0.9l-3.4-36.2C407.6,715,385.5,714.8,363.2,712.2z"/>
			</g>
		</g>
		<g>
			<g>
				<path class="st262" d="M367.4,676.1l-4.2,36.1c22.3,2.6,44.4,2.8,65.9,0.8l-3.4-36.2C406.7,678.6,387.2,678.4,367.4,676.1z"/>
			</g>
		</g>
		<g>
			<g>
				<path class="st263" d="M371.6,640l-4.2,36.1c19.8,2.3,39.3,2.5,58.3,0.7l-3.4-36.2C405.7,642.2,388.8,642,371.6,640z"/>
			</g>
		</g>
		<g>
			<g>
				<path class="st264" d="M375.8,603.9l-4.2,36.1c17.2,2,34.2,2.1,50.7,0.6l-3.4-36.2C404.8,605.8,390.4,605.6,375.8,603.9z"/>
			</g>
		</g>
		<g>
			<g>
				<path class="st265" d="M379.9,567.9l-4.2,36.1c14.6,1.7,29,1.8,43.1,0.5l-3.4-36.2C403.9,569.3,392,569.2,379.9,567.9z"/>
			</g>
		</g>
		<g>
			<g>
				<path class="st266" d="M384.1,531.8l-4.2,36.1c12,1.4,23.9,1.5,35.5,0.4l-3.4-36.2C402.9,532.9,393.6,532.9,384.1,531.8z"/>
			</g>
		</g>
		<g>
			<g>
				<path class="st267" d="M388.3,495.7l-4.2,36.1c9.5,1.1,18.8,1.2,27.9,0.3l-3.4-36.2C402,496.5,395.2,496.5,388.3,495.7z"/>
			</g>
		</g>
		<g>
			<g>
				<path class="st268" d="M392.5,459.6l-4.2,36.1c6.9,0.8,13.7,0.9,20.3,0.2l-3.4-36.2C401.1,460.1,396.8,460.1,392.5,459.6z"/>
			</g>
		</g>
		<g>
			<g>
				<path class="st269" d="M401.8,423.6c-1.7,0.2-3.4,0.1-5.2-0.1l-4.2,36.1c4.3,0.5,8.6,0.5,12.8,0.1L401.8,423.6z"/>
			</g>
		</g>
	</g>
	<g>
		<g>
			<g>
				<path class="st270" d="M432.5,749.1l3.4,36.2c27.5-2.6,54.1-8,79.5-15.9l-10.9-34.7C481.6,741.8,457.5,746.7,432.5,749.1z"/>
			</g>
		</g>
		<g>
			<g>
				<path class="st271" d="M429.1,712.9l3.4,36.2c25-2.4,49.1-7.3,72.1-14.5L493.8,700C473.1,706.4,451.5,710.8,429.1,712.9z"/>
			</g>
		</g>
		<g>
			<g>
				<path class="st272" d="M425.7,676.7l3.4,36.2c22.4-2.1,44-6.5,64.6-13l-10.9-34.7C464.6,671,445.5,674.9,425.7,676.7z"/>
			</g>
		</g>
		<g>
			<g>
				<path class="st273" d="M422.3,640.6l3.4,36.2c19.8-1.9,38.9-5.8,57.2-11.5L472,630.6C456.2,635.6,439.5,638.9,422.3,640.6z"/>
			</g>
		</g>
		<g>
			<g>
				<path class="st274" d="M418.9,604.4l3.4,36.2c17.2-1.6,33.9-5,49.7-10l-10.9-34.7C447.7,600.1,433.5,603,418.9,604.4z"/>
			</g>
		</g>
		<g>
			<g>
				<path class="st275" d="M415.5,568.2l3.4,36.2c14.6-1.4,28.8-4.3,42.3-8.5l-10.9-34.7C439.2,564.7,427.5,567.1,415.5,568.2z"/>
			</g>
		</g>
		<g>
			<g>
				<path class="st276" d="M412.1,532.1l3.4,36.2c12.1-1.1,23.7-3.5,34.8-7l-10.9-34.7C430.7,529.3,421.5,531.2,412.1,532.1z"/>
			</g>
		</g>
		<g>
			<g>
				<path class="st277" d="M408.6,495.9l3.4,36.2c9.5-0.9,18.7-2.8,27.4-5.5l-10.9-34.7C422.2,493.9,415.6,495.2,408.6,495.9z"/>
			</g>
		</g>
		<g>
			<g>
				<path class="st278" d="M405.2,459.7l3.4,36.2c6.9-0.7,13.6-2,20-4l-10.9-34.7C413.7,458.5,409.6,459.3,405.2,459.7z"/>
			</g>
		</g>
		<g>
			<g>
				<path class="st279" d="M406.9,422.5c-1.6,0.5-3.3,0.8-5.1,1l3.4,36.2c4.3-0.4,8.5-1.3,12.5-2.5L406.9,422.5z"/>
			</g>
		</g>
	</g>
	<g>
		<g>
			<g>
				<path class="st280" d="M504.6,734.6l10.9,34.7c26.4-8.3,51.3-19.1,74.5-32.1l-17.8-31.7C551.1,717.2,528.5,727.1,504.6,734.6z"
					/>
			</g>
		</g>
		<g>
			<g>
				<path class="st281" d="M493.7,699.9l10.9,34.7c23.9-7.5,46.5-17.3,67.5-29.1l-17.8-31.7C535.4,684.4,515.2,693.2,493.7,699.9z"
					/>
			</g>
		</g>
		<g>
			<g>
				<path class="st282" d="M482.9,665.2l10.9,34.7c21.5-6.7,41.7-15.5,60.5-26.1l-17.8-31.7C519.8,651.5,501.9,659.3,482.9,665.2z"
					/>
			</g>
		</g>
		<g>
			<g>
				<path class="st283" d="M472,630.6l10.9,34.7c19-5.9,36.9-13.7,53.6-23.1l-17.8-31.7C504.1,618.6,488.5,625.4,472,630.6z"/>
			</g>
		</g>
		<g>
			<g>
				<path class="st284" d="M461.2,595.9l10.9,34.7c16.5-5.2,32.1-11.9,46.6-20.1l-17.8-31.7C488.4,585.7,475.2,591.5,461.2,595.9z"
					/>
			</g>
		</g>
		<g>
			<g>
				<path class="st285" d="M450.3,561.2l10.9,34.7c14-4.4,27.3-10.2,39.6-17.1l-17.8-31.7C472.8,552.8,461.9,557.6,450.3,561.2z"/>
			</g>
		</g>
		<g>
			<g>
				<path class="st286" d="M439.4,526.5l10.9,34.7c11.6-3.6,22.5-8.4,32.6-14.1l-17.8-31.7C457.1,520,448.5,523.7,439.4,526.5z"/>
			</g>
		</g>
		<g>
			<g>
				<path class="st287" d="M428.6,491.9l10.9,34.7c9.1-2.8,17.7-6.6,25.7-11.1l-17.8-31.7C441.5,487.1,435.2,489.8,428.6,491.9z"/>
			</g>
		</g>
		<g>
			<g>
				<path class="st288" d="M417.7,457.2l10.9,34.7c6.6-2.1,12.9-4.8,18.7-8.1l-17.8-31.7C425.8,454.2,421.9,455.9,417.7,457.2z"/>
			</g>
		</g>
		<g>
			<g>
				<path class="st289" d="M411.6,420.5c-1.5,0.8-3.1,1.5-4.7,2l10.9,34.7c4.2-1.3,8.1-3,11.7-5.1L411.6,420.5z"/>
			</g>
		</g>
	</g>
	<g>
		<g>
			<g>
				<path class="st290" d="M572.1,705.4l17.8,31.7c24.1-13.6,46.2-29.3,66.2-46.9l-24-27.3C613.9,678.8,593.9,693.1,572.1,705.4z"/>
			</g>
		</g>
		<g>
			<g>
				<path class="st291" d="M554.2,673.7l17.8,31.7c21.8-12.3,41.9-26.6,60-42.5l-24-27.3C591.8,649.9,573.8,662.7,554.2,673.7z"/>
			</g>
		</g>
		<g>
			<g>
				<path class="st292" d="M536.4,642.1l17.8,31.7c19.6-11,37.5-23.8,53.8-38.1l-24-27.3C569.6,621,553.7,632.3,536.4,642.1z"/>
			</g>
		</g>
		<g>
			<g>
				<path class="st293" d="M518.6,610.4l17.8,31.7c17.3-9.8,33.2-21.1,47.6-33.7l-24-27.3C547.5,592.1,533.7,601.9,518.6,610.4z"/>
			</g>
		</g>
		<g>
			<g>
				<path class="st294" d="M500.8,578.8l17.8,31.7c15.1-8.5,28.9-18.4,41.4-29.3l-24-27.3C525.3,563.2,513.6,571.5,500.8,578.8z"/>
			</g>
		</g>
		<g>
			<g>
				<path class="st295" d="M482.9,547.1l17.8,31.7c12.8-7.2,24.6-15.6,35.2-24.9l-24-27.3C503.2,534.2,493.5,541.2,482.9,547.1z"/>
			</g>
		</g>
		<g>
			<g>
				<path class="st296" d="M465.1,515.5l17.8,31.7c10.6-5.9,20.2-12.9,29-20.6l-24-27.3C481,505.3,473.4,510.8,465.1,515.5z"/>
			</g>
		</g>
		<g>
			<g>
				<path class="st297" d="M447.3,483.8l17.8,31.7c8.3-4.7,15.9-10.1,22.8-16.2l-24-27.3C458.9,476.4,453.3,480.4,447.3,483.8z"/>
			</g>
		</g>
		<g>
			<g>
				<path class="st298" d="M429.4,452.1l17.8,31.7c6-3.4,11.6-7.4,16.6-11.8l-24-27.3C436.7,447.5,433.2,450,429.4,452.1z"/>
			</g>
		</g>
		<g>
			<g>
				<path class="st299" d="M415.8,417.5c-1.3,1.1-2.7,2.1-4.2,3l17.8,31.7c3.8-2.1,7.3-4.6,10.4-7.4L415.8,417.5z"/>
			</g>
		</g>
	</g>
</g>
</svg>
