<?xml version="1.0" encoding="utf-8"?>
<!-- Generator: Adobe Illustrator 25.4.1, SVG Export Plug-In . SVG Version: 6.00 Build 0)  -->
<svg version="1.1" id="레이어_1" xmlns="http://www.w3.org/2000/svg" xmlns:xlink="http://www.w3.org/1999/xlink" x="0px"
	 y="0px" viewBox="0 0 800 800" style="enable-background:new 0 0 800 800;" xml:space="preserve">
<style type="text/css">
	.st0{fill:url(#XMLID_00000162334353071976185330000013857157446191203715_);}
</style>
<g id="BACKGROUND">
</g>
<g id="XMLID_45_">
	
		<linearGradient id="XMLID_00000092430919595552275440000001741739695666239378_" gradientUnits="userSpaceOnUse" x1="1533.7018" y1="398.2732" x2="-2857.3743" y2="398.2732">
		<stop  offset="0" style="stop-color:#600076"/>
		<stop  offset="1" style="stop-color:#008294"/>
	</linearGradient>
	<path id="XMLID_1046_" style="fill:url(#XMLID_00000092430919595552275440000001741739695666239378_);" d="M760.4,125.1h-122V20.8
		c0-5.9-4.8-10.8-10.8-10.8H289.5c-0.2,0-0.4,0.1-0.7,0.1c-1,0.1-1.9,0.2-2.8,0.6c-0.3,0.1-0.7,0.2-1,0.4c-1.1,0.5-2.2,1.2-3.1,2.1
		L121.8,173.3c0,0-0.1,0.1-0.1,0.1c-0.9,0.9-1.5,1.9-2,3c-0.2,0.4-0.3,0.7-0.4,1.1c-0.3,0.9-0.5,1.7-0.5,2.6c0,0.3-0.1,0.5-0.1,0.7
		v160.9H55.9c-5.9,0-10.8,4.8-10.8,10.8v423.3c0,5.9,4.8,10.8,10.8,10.8h675.5c5.9,0,10.8-4.8,10.8-10.8V352.5
		c0-5.9-4.8-10.8-10.8-10.8h-38.3v-82.3h67.2c5.9,0,10.8-4.8,10.8-10.8V135.8C771.2,129.9,766.4,125.1,760.4,125.1z M278.8,46.7
		v123.4H155.4L278.8,46.7z M140.1,191.6h149.4c5.9,0,10.8-4.8,10.8-10.8V31.5h316.7v93.5H514.6c-2.6,0-5.1,0.9-7.1,2.6l-56.6,49.4
		c-2.3,2-3.7,5-3.7,8.1v63.5c0,5.9,4.8,10.8,10.8,10.8h98.1v82.3H140.1V191.6z M191.7,429.6v-66.3h133.1v66.3H191.7z M66.7,533.5
		v-82.4H245v82.4H66.7z M129.4,363.3h40.8v66.3H66.7v-66.3H129.4z M66.7,669.6h94.1V765H66.7V669.6z M442.2,765v-95.4H505
		c5.9,0,10.8-4.8,10.8-10.8s-4.8-10.8-10.8-10.8H384c-5.9,0-10.8,4.8-10.8,10.8s4.8,10.8,10.8,10.8h36.8V765H182.3v-95.4h85.2
		c5.9,0,10.8-4.8,10.8-10.8s-4.8-10.8-10.8-10.8H66.7V555h298.5c5.9,0,10.8-4.8,10.8-10.8c0-5.9-4.8-10.8-10.8-10.8h-98.6v-82.4
		h98.6c5.9,0,10.8-4.8,10.8-10.8c0-5.9-4.8-10.8-10.8-10.8h-18.8v-66.3h209.7v170.2H444.5c-5.9,0-10.8,4.8-10.8,10.8
		c0,5.9,4.8,10.8,10.8,10.8h111.6v76.9c0,5.9,4.8,10.8,10.8,10.8h115.6c5.9,0,10.8-4.8,10.8-10.8V439.1h27.5V765H442.2z
		 M720.7,363.3v54.4h-27.5v-54.4H720.7z M671.7,352.5v268.6h-94.1V352.5v-93.1h94.1V352.5z M749.7,237.9h-67.2H566.8h-98.1v-47.8
		l49.9-43.5h109.1h122V237.9z"/>
</g>
</svg>
