<?xml version="1.0" encoding="utf-8"?>
<!-- Generator: Adobe Illustrator 25.4.1, SVG Export Plug-In . SVG Version: 6.00 Build 0)  -->
<svg version="1.1" id="레이어_1" xmlns="http://www.w3.org/2000/svg" xmlns:xlink="http://www.w3.org/1999/xlink" x="0px"
	 y="0px" viewBox="0 0 800 800" style="enable-background:new 0 0 800 800;" xml:space="preserve">
<style type="text/css">
	.st0{fill:#FFFFFF;}
	.st1{fill:#1E87C9;}
</style>
<g id="BACKGROUND">
</g>
<g>
	<g id="_x34_48_x2C__Develop_x2C__Development_x2C__File_x2C__Management_x2C_">
		<g>
			<g>
				<polygon class="st0" points="125,31 125,142.9 28.6,142.9 				"/>
				<path class="st0" d="M768.1,532.6v55.3h-57.9c-3.9,21.9-12.9,41.2-24.4,59.2l39.9,42.4l-38.6,38.6L645.9,687
					c-18,11.6-37.3,20.6-59.2,24.4v57.9h-55.3v-57.9c-21.9-3.9-41.2-12.9-59.2-24.4l-42.4,41.2l-38.6-38.6l41.2-41.2
					c-11.6-18-20.6-37.3-24.4-59.2h-57.9v-55.3H408c3.9-21.9,12.9-41.2,24.4-59.2l-41.2-42.4l38.6-38.6l41.2,41.2
					c18-11.6,37.3-20.6,59.2-24.4v-57.9h55.3v57.9c21.9,3.9,41.2,12.9,59.2,24.4l42.4-41.2l38.6,38.6l-41.2,41.2
					c11.6,18,20.6,37.3,24.4,59.2H768.1L768.1,532.6z M642.1,560.9c0-46.3-37.3-83.6-83.6-83.6c-46.3,0-83.6,37.3-83.6,83.6
					c0,46.3,37.3,83.6,83.6,83.6C604.8,644.5,642.1,607.2,642.1,560.9z"/>
				<path class="st1" d="M462,786H28.6c-9,0-16.7-7.7-16.7-16.7V142.9c0-3.9,1.3-7.7,3.9-10.3l96.5-113.2c2.6-3.9,7.7-5.1,11.6-5.1
					h418c9,0,16.7,7.7,16.7,16.7v257.2c0,9-7.7,16.7-16.7,16.7c-9,0-16.7-7.7-16.7-16.7V46.4H131.5L44,149.3v604.5h418
					c9,0,16.7,7.7,16.7,16.7C478.7,778.3,471,786,462,786z"/>
				<path class="st1" d="M125,159.6H28.6c-9,0-16.7-7.7-16.7-16.7c0-9,7.7-16.7,16.7-16.7h79.7V29.7c0-9,7.7-16.7,16.7-16.7
					s16.7,7.7,16.7,16.7v113.2C140.5,151.9,132.8,159.6,125,159.6z"/>
				<path class="st1" d="M365.6,142.9h-81c-9,0-16.7-7.7-16.7-16.7s7.7-16.7,16.7-16.7h81c9,0,16.7,7.7,16.7,16.7
					S374.6,142.9,365.6,142.9z"/>
				<path class="st1" d="M365.6,207.2H204.8c-9,0-16.7-7.7-16.7-16.7c0-9,7.7-16.7,16.7-16.7h160.8c9,0,16.7,7.7,16.7,16.7
					C382.3,199.5,374.6,207.2,365.6,207.2z"/>
				<path class="st1" d="M365.6,271.5H204.8c-9,0-16.7-7.7-16.7-16.7c0-9,7.7-16.7,16.7-16.7h160.8c9,0,16.7,7.7,16.7,16.7
					C382.3,263.8,374.6,271.5,365.6,271.5z"/>
				<path class="st1" d="M285.8,560.9h-39.9c-9,0-16.7-7.7-16.7-16.7c0-9,7.7-16.7,16.7-16.7h39.9c9,0,16.7,7.7,16.7,16.7
					C302.5,553.2,293.5,560.9,285.8,560.9z"/>
				<path class="st1" d="M285.8,625.2h-81c-9,0-16.7-7.7-16.7-16.7c0-9,7.7-16.7,16.7-16.7h81c9,0,16.7,7.7,16.7,16.7
					C301.3,617.5,293.5,625.2,285.8,625.2z"/>
				<path class="st1" d="M285.8,689.5h-81c-9,0-16.7-7.7-16.7-16.7c0-9,7.7-16.7,16.7-16.7h81c9,0,16.7,7.7,16.7,16.7
					C301.3,681.8,293.5,689.5,285.8,689.5z"/>
				<path class="st1" d="M558.5,661.2c-55.3,0-100.3-45-100.3-100.3c0-55.3,45-100.3,100.3-100.3c55.3,0,100.3,45,100.3,100.3
					C658.8,616.2,613.8,661.2,558.5,661.2z M558.5,494c-37.3,0-68.2,30.9-68.2,68.2c0,37.3,30.9,68.2,68.2,68.2
					c37.3,0,68.2-30.9,68.2-68.2C626.7,524.9,595.8,494,558.5,494z"/>
				<path class="st1" d="M586.8,786h-55.3c-9,0-16.7-7.7-16.7-16.7v-45c-14.1-3.9-28.3-9-41.2-16.7l-32.2,32.2
					c-6.4,6.4-16.7,6.4-23.2,0l-39.9-39.9c-2.6-2.6-5.1-7.7-5.1-11.6c0-3.9,1.3-7.7,5.1-11.6l32.2-32.2c-7.7-12.9-12.9-27-16.7-41.2
					h-45c-9,0-16.7-7.7-16.7-16.7v-55.3c0-9,7.7-16.7,16.7-16.7h45c3.9-14.1,9-28.3,16.7-41.2l-32.2-32.2c-2.6-2.6-5.1-7.7-5.1-11.6
					c0-3.9,1.3-7.7,5.1-11.6l39.9-39.9c2.6-2.6,7.7-5.1,11.6-5.1c3.9,0,7.7,1.3,11.6,5.1l32.2,32.2c12.9-7.7,27-12.9,41.2-16.7v-45
					c0-9,7.7-16.7,16.7-16.7h55.3c9,0,16.7,7.7,16.7,16.7v45c14.1,3.9,28.3,9,41.2,16.7l32.2-32.2c2.6-2.6,7.7-5.1,11.6-5.1
					c3.9,0,7.7,1.3,11.6,5.1l39.9,39.9c6.4,6.4,6.4,16.7,0,23.2l-32.2,32.2c7.7,12.9,12.9,27,16.7,41.2h45c9,0,16.7,7.7,16.7,16.7
					v55.3c0,9-7.7,16.7-16.7,16.7h-45c-3.9,14.1-9,28.3-16.7,41.2l32.2,32.2c6.4,6.4,6.4,16.7,0,23.2L700,739.7
					c-6.4,6.4-16.7,6.4-23.2,0l-32.2-32.2c-12.9,7.7-27,12.9-41.2,16.7v45C602.2,778.3,595.8,786,586.8,786z M546.9,753.8h23.2
					v-42.4c0-7.7,5.1-14.1,12.9-15.4c19.3-3.9,37.3-10.3,52.7-21.9c6.4-3.9,15.4-3.9,20.6,1.3l29.6,29.6l16.7-16.7L673,658.7
					c-5.1-5.1-6.4-14.1-1.3-20.6c11.6-15.4,18-33.4,21.9-52.7c1.3-7.7,7.7-12.9,15.4-12.9h42.4v-23.2H709c-7.7,0-14.1-5.1-15.4-12.9
					c-3.9-19.3-10.3-37.3-21.9-52.7c-3.9-6.4-3.9-15.4,1.3-20.6l29.6-29.6l-15.4-18l-29.6,29.6c-5.1,5.1-14.1,6.4-20.6,1.3
					c-15.4-11.6-33.4-18-52.7-21.9c-7.7-1.3-12.9-7.7-12.9-15.4V368h-23.2v42.4c0,7.7-5.1,14.1-12.9,15.4
					c-19.3,3.9-37.3,10.3-52.7,21.9c-6.4,3.9-15.4,3.9-20.6-1.3l-32.2-30.9l-16.7,16.7l29.6,29.6c5.1,5.1,6.4,14.1,1.3,20.6
					c-11.6,15.4-18,33.4-21.9,52.7c-1.3,7.7-7.7,12.9-15.4,12.9h-41.2v23.2H408c7.7,0,14.1,5.1,15.4,12.9
					c3.9,19.3,10.3,37.3,21.9,52.7c3.9,6.4,3.9,15.4-1.3,20.6l-30.9,32.2l16.7,16.7l29.6-29.6c5.1-5.1,14.1-6.4,20.6-1.3
					c15.4,11.6,33.4,18,52.7,21.9c7.7,1.3,12.9,7.7,12.9,15.4L546.9,753.8L546.9,753.8z"/>
				<path class="st1" d="M157.2,689.5h-42.4c-9,0-16.7-7.7-16.7-16.7v-46.3l-15.4-12.9c-3.9-2.6-5.1-7.7-5.1-12.9s2.6-9,5.1-12.9
					L98,575.1v-30.9c0-9,7.7-16.7,16.7-16.7h42.4c9,0,16.7,7.7,16.7,16.7c0,9-9,16.7-16.7,16.7h-27v21.9c0,5.1-2.6,9-5.1,12.9
					l-6.4,6.4l6.4,6.4c3.9,2.6,5.1,7.7,5.1,12.9V660h27c9,0,16.7,7.7,16.7,16.7C172.6,681.8,164.9,689.5,157.2,689.5z"/>
				<path class="st1" d="M456.9,271.5h-42.4c-9,0-16.7-7.7-16.7-16.7c0-9,7.7-16.7,16.7-16.7h27v-21.9c0-5.1,2.6-9,5.1-12.9l6.4-6.4
					l-6.4-6.4c-3.9-2.6-5.1-7.7-5.1-12.9V139h-27c-9,0-16.7-7.7-16.7-16.7c0-9,7.7-16.7,16.7-16.7h42.4c9,0,16.7,7.7,16.7,16.7v46.3
					l15.4,12.9c3.9,2.6,5.1,7.7,5.1,12.9c0,5.1-2.6,9-5.1,12.9l-15.4,12.9v30.9C472.3,263.8,465.9,271.5,456.9,271.5z"/>
			</g>
		</g>
	</g>
	<g id="Layer_1_25_">
	</g>
</g>
</svg>
