<?xml version="1.0" encoding="utf-8"?>
<!-- Generator: Adobe Illustrator 25.4.1, SVG Export Plug-In . SVG Version: 6.00 Build 0)  -->
<svg version="1.1" id="레이어_1" xmlns="http://www.w3.org/2000/svg" xmlns:xlink="http://www.w3.org/1999/xlink" x="0px"
	 y="0px" viewBox="0 0 3710 3710" style="enable-background:new 0 0 3710 3710;" xml:space="preserve">
<style type="text/css">
	.st0{fill:url(#SVGID_1_);}
	.st1{fill:#7D97F4;}
	.st2{fill:#91B3FA;}
	.st3{fill:url(#SVGID_00000134225821439171968680000012439425849183575172_);}
	.st4{fill:url(#SVGID_00000168796312192819532060000010552982808992872872_);}
	.st5{fill:url(#SVGID_00000013193609902348174560000006837493923346410905_);}
	.st6{fill:url(#SVGID_00000041266984379559747790000012867059406227368091_);}
	.st7{fill:url(#SVGID_00000072987830910900674750000008595566056257250968_);}
	.st8{fill:url(#SVGID_00000098914678207638894820000007680085863625017756_);}
	.st9{fill:url(#SVGID_00000173152773648113015620000008973893149312079254_);}
	.st10{fill:url(#SVGID_00000044164098075302456670000011578060289227251388_);}
	.st11{fill:url(#SVGID_00000171713413456970905870000016191210512044367249_);}
	.st12{fill:url(#SVGID_00000005957312753660742670000008497577953168082564_);}
	.st13{fill:#FFFFFF;}
	.st14{fill:url(#SVGID_00000031922773513282865650000016111149917759826847_);}
	.st15{opacity:0.49;fill:#FFFFFF;enable-background:new    ;}
	.st16{fill:url(#SVGID_00000082358414757998251070000016043174592790317480_);}
	.st17{fill:url(#SVGID_00000089568850040700536260000009215523998775412414_);}
	.st18{fill:url(#SVGID_00000041999052211664510130000009334536177434591397_);}
	.st19{fill:#BDD0FB;}
	.st20{fill:url(#SVGID_00000053517326549348574450000003856202212166333071_);}
	.st21{fill:url(#SVGID_00000043444460511576831030000013033245710418921908_);}
	.st22{fill:url(#SVGID_00000088846761147102479230000001830480415222183333_);}
	.st23{fill:url(#SVGID_00000080885055218417476240000015611194159046165897_);}
	.st24{fill:url(#SVGID_00000092439085515455524110000008116860052425072281_);}
	.st25{fill:url(#SVGID_00000066514116862490940620000008425062402064577928_);}
	.st26{fill:url(#SVGID_00000040551317306474777870000014679079537942367370_);}
	.st27{fill:url(#SVGID_00000147194876944057482720000009055152364856685196_);}
	.st28{fill:url(#SVGID_00000034053861051928315660000010275926225337389707_);}
	.st29{fill:url(#SVGID_00000007403325388073157150000008775843967405817271_);}
	.st30{fill:url(#SVGID_00000176736139944554686870000002681102318462173104_);}
	.st31{fill:url(#SVGID_00000153682816614536349550000006916531966779043462_);}
	.st32{fill:url(#SVGID_00000083786717570607680970000013687367492833162163_);}
	.st33{fill:url(#SVGID_00000045602123590571784420000012966548070364005548_);}
	.st34{fill:url(#SVGID_00000009578716242692855390000013869875613294423467_);}
	.st35{fill:url(#SVGID_00000056393961356997539470000015203489675936714907_);}
	.st36{fill:url(#SVGID_00000144297400243945133130000006983703568997273265_);}
	.st37{fill:url(#SVGID_00000109011589808902425250000009937649143402227842_);}
	.st38{fill:url(#SVGID_00000010279096244429953830000001907639186911413134_);}
	.st39{fill:url(#SVGID_00000098914816576747696730000016090554206489967786_);}
</style>
<linearGradient id="SVGID_1_" gradientUnits="userSpaceOnUse" x1="3612.5491" y1="3251.6709" x2="1512.673" y2="1414.2812">
	<stop  offset="0" style="stop-color:#DAE3FE"/>
	<stop  offset="1" style="stop-color:#E9EFFD"/>
</linearGradient>
<circle class="st0" cx="1958.2" cy="1804.1" r="1371.2"/>
<g>
	<path class="st1" d="M2074.3,2888.6c0,0-199.7-1297.6-769.2-2042.4c-38.3-50.1-116.7-38.2-138.2,21
		C1023.6,1263.5,712.3,2475.5,2074.3,2888.6z"/>
	<path class="st2" d="M1954,2796.3c2.9,3.3-1.6,7.8-4.9,4.9c-121-105.9-580.6-615.7-689.2-1567.1c-0.3-3.1,4.2-3.8,4.8-0.8
		C1309.8,1455.4,1500.9,2276.4,1954,2796.3z"/>
</g>
<g>
	<g>
		
			<linearGradient id="SVGID_00000013186504632109696830000002519294883492639654_" gradientUnits="userSpaceOnUse" x1="2465.8591" y1="3137.8262" x2="2462.4863" y2="2940.5144" gradientTransform="matrix(1 0 0 -1 0 3710)">
			<stop  offset="0" style="stop-color:#4F52FF"/>
			<stop  offset="1" style="stop-color:#4042E2"/>
		</linearGradient>
		<path style="fill:url(#SVGID_00000013186504632109696830000002519294883492639654_);" d="M2210.1,779.8l-8.2-109.1
			c-3-40.6,26.6-76.3,67-80.9c92.6-10.5,256.1-23.8,383-5.9c41.9,5.9,73,42,73,84.4v111.6H2612l3.8-57.1
			c3.1-46.1-31.1-86.4-77.1-90.6c-48.1-4.4-113.1-6.1-183.4,4c-44.5,6.4-73.9,49.7-63,93.3l12.6,50.3H2210.1z"/>
		
			<linearGradient id="SVGID_00000061444122339963273590000005297188898089296776_" gradientUnits="userSpaceOnUse" x1="2064.0181" y1="757.9241" x2="2978.8401" y2="3497.281" gradientTransform="matrix(0.9995 3.260000e-02 3.260000e-02 -0.9995 16.5973 3607.0989)">
			<stop  offset="0" style="stop-color:#4F52FF"/>
			<stop  offset="1" style="stop-color:#4042E2"/>
		</linearGradient>
		<polygon style="fill:url(#SVGID_00000061444122339963273590000005297188898089296776_);" points="3098.5,2927.7 1885.3,2902 
			1799,1047.1 3162.3,967.1 		"/>
		
			<linearGradient id="SVGID_00000148625528613103724230000008442389544695811006_" gradientUnits="userSpaceOnUse" x1="2423.595" y1="2486.8772" x2="2518.9998" y2="2916.1995" gradientTransform="matrix(1 0 0 -1 0 3710)">
			<stop  offset="0" style="stop-color:#4F52FF"/>
			<stop  offset="1" style="stop-color:#4042E2"/>
		</linearGradient>
		<path style="fill:url(#SVGID_00000148625528613103724230000008442389544695811006_);" d="M3163.5,930.4l-1362.6,58l149.6-187.3
			c28.3-35.5,75.1-57,125.7-57.8l822.7-12.7c28.3-0.4,55.5,9.4,75,27.1L3163.5,930.4z"/>
		
			<linearGradient id="SVGID_00000066475267569925261010000003306145219148070808_" gradientUnits="userSpaceOnUse" x1="2408.0422" y1="643.0355" x2="3322.8604" y2="3382.3806" gradientTransform="matrix(0.9995 3.260000e-02 3.260000e-02 -0.9995 16.5973 3607.0989)">
			<stop  offset="0" style="stop-color:#4F52FF"/>
			<stop  offset="1" style="stop-color:#4042E2"/>
		</linearGradient>
		<path style="fill:url(#SVGID_00000066475267569925261010000003306145219148070808_);" d="M1885.3,2902l1213.1,25.7l-220.1,165.9
			c-16.9,12.8-37.3,19.7-58.2,19.7l-698.5,2.2c-27.5,0.1-53.8-11.7-72.6-32.5L1885.3,2902z"/>
		
			<linearGradient id="SVGID_00000171715222645620427300000006695935568512478343_" gradientUnits="userSpaceOnUse" x1="2559.6582" y1="2865.0977" x2="2706.1726" y2="3253.5317" gradientTransform="matrix(1 0 0 -1 0 3710)">
			<stop  offset="0" style="stop-color:#4F52FF"/>
			<stop  offset="1" style="stop-color:#4042E2"/>
		</linearGradient>
		<path style="fill:url(#SVGID_00000171715222645620427300000006695935568512478343_);" d="M1663.4,1050.8l32.6-97.5
			c8.2-24.4,38.6-41.8,74.6-42.4L3174,884.2c39.4-0.8,74.5,18.6,83,45.8l38,122.2c10.9,34.9-26.1,67.3-76.8,67.4l-1474.1,2.1
			C1691.3,1121.6,1651.4,1086.7,1663.4,1050.8z"/>
		
			<linearGradient id="SVGID_00000120524157566063135310000001737564053796213923_" gradientUnits="userSpaceOnUse" x1="1923.2823" y1="-75.7552" x2="1977.7987" y2="963.4765" gradientTransform="matrix(1 0 0 -1 0 3710)">
			<stop  offset="0" style="stop-color:#4F52FF"/>
			<stop  offset="1" style="stop-color:#4042E2"/>
		</linearGradient>
		<path style="fill:url(#SVGID_00000120524157566063135310000001737564053796213923_);" d="M2048.9,2861.4L2048.9,2861.4
			c-10.9,0-19.8-8.5-20.3-19.4l-70.4-1557.9c-0.5-11.6,8.7-21.2,20.3-21.2l0,0c10.9,0,19.8,8.5,20.3,19.4l70.4,1557.9
			C2069.7,2851.8,2060.5,2861.4,2048.9,2861.4z"/>
		
			<linearGradient id="SVGID_00000112619124364686363600000000868111159504568200_" gradientUnits="userSpaceOnUse" x1="2083.8706" y1="-228.7461" x2="2138.3872" y2="810.4858" gradientTransform="matrix(0.9999 1.430000e-02 1.430000e-02 -0.9999 7.6888 3665.0935)">
			<stop  offset="0" style="stop-color:#4F52FF"/>
			<stop  offset="1" style="stop-color:#4042E2"/>
		</linearGradient>
		<path style="fill:url(#SVGID_00000112619124364686363600000000868111159504568200_);" d="M2236.2,2861.9L2236.2,2861.9
			c-10.9-0.2-19.7-8.8-20-19.7l-48.1-1558.8c-0.4-11.6,9-21.1,20.6-20.9l0,0c10.9,0.2,19.7,8.8,20,19.7l48.1,1558.8
			C2257.1,2852.5,2247.7,2862,2236.2,2861.9z"/>
		
			<linearGradient id="SVGID_00000172408341882379859230000010022839060514851254_" gradientUnits="userSpaceOnUse" x1="3202.3831" y1="861.6193" x2="3256.8994" y2="1900.851" gradientTransform="matrix(-1 0 0 -1 6212.5273 3710)">
			<stop  offset="0" style="stop-color:#4F52FF"/>
			<stop  offset="1" style="stop-color:#4042E2"/>
		</linearGradient>
		<path style="fill:url(#SVGID_00000172408341882379859230000010022839060514851254_);" d="M2933.7,2861.4L2933.7,2861.4
			c10.9,0,19.8-8.5,20.3-19.4l70.4-1557.9c0.5-11.6-8.7-21.2-20.3-21.2l0,0c-10.9,0-19.8,8.5-20.3,19.4l-70.4,1557.9
			C2912.9,2851.8,2922.1,2861.4,2933.7,2861.4z"/>
		
			<linearGradient id="SVGID_00000085933472051638202200000010201712637740776074_" gradientUnits="userSpaceOnUse" x1="3376.2419" y1="981.6398" x2="3430.7585" y2="2020.8718" gradientTransform="matrix(-0.9999 1.430000e-02 -1.430000e-02 -0.9999 6204.8384 3665.0935)">
			<stop  offset="0" style="stop-color:#4F52FF"/>
			<stop  offset="1" style="stop-color:#4042E2"/>
		</linearGradient>
		<path style="fill:url(#SVGID_00000085933472051638202200000010201712637740776074_);" d="M2746.4,2861.9L2746.4,2861.9
			c10.9-0.2,19.7-8.8,20-19.7l48.1-1558.8c0.4-11.6-9-21.1-20.6-20.9l0,0c-10.9,0.2-19.7,8.8-20,19.7L2725.8,2841
			C2725.5,2852.5,2734.9,2862,2746.4,2861.9z"/>
		
			<linearGradient id="SVGID_00000156560890374860090020000005874968046243418013_" gradientUnits="userSpaceOnUse" x1="2385.5007" y1="-100.002" x2="2440.0173" y2="939.2311" gradientTransform="matrix(1 0 0 -1 0 3710)">
			<stop  offset="0" style="stop-color:#4F52FF"/>
			<stop  offset="1" style="stop-color:#4042E2"/>
		</linearGradient>
		<path style="fill:url(#SVGID_00000156560890374860090020000005874968046243418013_);" d="M2476.6,2861.4L2476.6,2861.4
			c-7.5,0-13.5-6.1-13.5-13.5V1299c0-7.5,6.1-13.5,13.5-13.5l0,0c7.5,0,13.5,6.1,13.5,13.5v1548.8
			C2490.1,2855.4,2484,2861.4,2476.6,2861.4z"/>
	</g>
	<g>
		<path class="st13" d="M2576.2,1518.5l95.5,175.9l71.5-127.6c7.9-14.1,8.2-31.3,0.7-45.7l-44-84.1c-3.7-7-13.7-6.9-17.2,0.2
			l-30.5,61.4l-63.7-0.5C2577.9,1498,2571.2,1509.2,2576.2,1518.5z"/>
		<path class="st13" d="M2729.2,1591.9l-14.7,10.1c-14.2,9.7-31.1,14.9-48.4,14.7l-132.9-1.1l0.3-30.4c0-3.8-5-5.2-7-1.9l-62,108.3
			l60.7,108.4c1.8,3.3,6.8,2.1,7-1.6l1.9-36l61.8,0.5c24.8,0.2,47.6-13.2,59.4-35L2729.2,1591.9z"/>
		<path class="st13" d="M2423.7,1458.7l104.5-170.7l-146.2,1.9c-16.2,0.2-31.2,8.6-39.9,22.3l-50.8,80.1c-4.2,6.7,0.9,15.3,8.8,14.8
			l68.4-4.3l31.4,55.4C2405,1467.4,2418.2,1467.7,2423.7,1458.7z"/>
		<path class="st13" d="M2444.8,1617.7l-200.1-5.2l74.7,125.7c8.3,13.9,23.1,22.7,39.3,23.4l94.8,3.9c7.9,0.3,12.8-8.4,8.5-15
			l-37.9-57.1l32.3-54.9C2461.7,1629.4,2455.4,1617.9,2444.8,1617.7z"/>
		<path class="st13" d="M2304.8,1713.4l-1.4-17.8c-1.3-17.2,2.7-34.4,11.4-49.3l67.5-114.6l26.2,15.4c3.3,1.9,7-1.8,5.1-5.1
			l-62.8-107.8l-124.2-1.6c-3.7,0-5.2,4.8-2.1,6.8l30.3,19.6l-31.4,53.3c-12.6,21.3-12.3,47.9,0.6,69L2304.8,1713.4z"/>
		<path class="st13" d="M2765.4,1301.2c0.3,0.3,0.6,0.6,0.9,0.9L2765.4,1301.2z"/>
		<path class="st13" d="M2765.4,1301.2c0.3,0.6,0.6,1.2,0.9,1.8L2765.4,1301.2z"/>
		<path class="st13" d="M2410.8,1289.5l16.1,7.7c15.6,7.5,28.5,19.5,37,34.5l65.5,115.7l-26.5,15c-3.3,1.9-2,7,1.8,7l124.7-0.4
			l63.5-106.8c1.9-3.2-1.6-6.9-4.9-5.2l-32.1,16.4l-30.5-53.8c-12.2-21.5-35.3-34.6-60-34L2410.8,1289.5z"/>
	</g>
</g>
<g>
	<g>
		
			<linearGradient id="SVGID_00000021114073978774211530000006345802846849428614_" gradientUnits="userSpaceOnUse" x1="1244.3947" y1="1274.3973" x2="2641.8064" y2="1274.3973" gradientTransform="matrix(1 0 0 -1 0 3710)">
			<stop  offset="0" style="stop-color:#FF928E"/>
			<stop  offset="1" style="stop-color:#FE7062"/>
		</linearGradient>
		<path style="fill:url(#SVGID_00000021114073978774211530000006345802846849428614_);" d="M2093.6,2003.8l2.2-315l-286.8-2.4
			l-2,296c-1.4,158.7-53.7,312.8-149.3,439.4l-382.1,506.1c-20,26.4-30.9,58.6-31.2,91.7v0.2c-0.7,85.3,67.8,155,153.1,155.7
			l1088.6,9.3c85.3,0.7,155-67.8,155.7-153.1l0,0c0.3-33.3-10.2-65.7-29.8-92.6L2225,2411
			C2138.4,2292.9,2092.3,2150.1,2093.6,2003.8z"/>
		<path class="st15" d="M1397.7,3136.8c-63.9-0.5-115.4-52.9-114.8-116.8c0.2-24.9,8.5-49.3,23.4-69l382.1-506.1
			c99.9-132.3,155.7-296.5,157.1-462.3l1.7-257.4l209.6,1.8l-1.9,276.5c-1.3,153.5,48,306.4,138.8,430.3l387,528.1
			c14.6,20,22.6,44.6,22.4,69.4c-0.5,63.8-52.9,115.4-116.8,114.8L1397.7,3136.8z"/>
		
			<linearGradient id="SVGID_00000054967603651110709060000014935490876590657190_" gradientUnits="userSpaceOnUse" x1="1756.3986" y1="2017.1704" x2="2148.8015" y2="2017.1704" gradientTransform="matrix(1 0 0 -1 0 3710)">
			<stop  offset="0" style="stop-color:#FF928E"/>
			<stop  offset="1" style="stop-color:#FE7062"/>
		</linearGradient>
		<path style="fill:url(#SVGID_00000054967603651110709060000014935490876590657190_);" d="M2103.8,1745.4l-303.4-2.6
			c-24.5-0.2-44.2-20.3-44-44.8l0,0c0.2-23.6,18.8-42.9,42.4-44l303.6-13.7c25.4-1.1,46.6,19.3,46.4,44.7l-0.1,16.3
			C2148.4,1725.9,2128.3,1745.6,2103.8,1745.4z"/>
		
			<linearGradient id="SVGID_00000057137937047193269520000011051368025188306830_" gradientUnits="userSpaceOnUse" x1="2248.8672" y1="1168.4952" x2="-502.3385" y2="-3034.1394" gradientTransform="matrix(1 8.500000e-03 8.500000e-03 -1 8.4848 3688.585)">
			<stop  offset="0" style="stop-color:#FF928E"/>
			<stop  offset="1" style="stop-color:#FE7062"/>
		</linearGradient>
		<path style="fill:url(#SVGID_00000057137937047193269520000011051368025188306830_);" d="M1306.3,2951
			c-14.9,19.7-23.2,44.1-23.4,69c-0.5,63.8,51,116.2,114.8,116.8l1088.6,9.3c63.9,0.5,116.2-51,116.8-114.8
			c0.2-24.8-7.7-49.4-22.4-69.4L2407.9,2726l-925.7-7.9L1306.3,2951z"/>
	</g>
	<g>
		<path class="st1" d="M2772.3,3187.1L2772.3,3187.1c-60.4-0.5-108.9-49.9-108.4-110.3l6.7-782.4l242.6,2.1l-30.6,782.2
			C2882.1,3139.1,2832.7,3187.6,2772.3,3187.1z"/>
		<path class="st15" d="M2772.6,3161.5c-46.2-0.4-83.4-38.3-83-84.4l6.7-782.4l190.5,1.6l-29.8,781.8v0.4
			C2856.6,3124.6,2818.7,3161.8,2772.6,3161.5z"/>
		<path class="st2" d="M2912.9,2315.3l-245.8-2.1c-19.9-0.2-35.8-16.4-35.7-36.3l0,0c0.2-19.1,15.2-34.8,34.3-35.6l245.9-11.1
			c20.6-0.9,37.8,15.6,37.6,36.2l-0.1,13.2C2949,2299.5,2932.8,2315.5,2912.9,2315.3z"/>
		<path class="st2" d="M2693.2,2651.7l-3.6,425.4c-0.4,46.2,36.8,84,83,84.4s84-36.8,84.4-83v-0.4l16.2-424.9L2693.2,2651.7z"/>
	</g>
	<g>
		<path class="st1" d="M2438.9,3192L2438.9,3192c-60.4-0.5-108.9-49.9-108.4-110.3l6.7-782.4l242.6,2.1l-30.6,782.2
			C2548.7,3144,2499.3,3192.5,2438.9,3192z"/>
		<path class="st15" d="M2439.2,3166.4c-46.2-0.4-83.4-38.3-83-84.4l6.7-782.4l190.5,1.6l-29.8,781.8v0.4
			C2523.2,3129.6,2485.3,3166.8,2439.2,3166.4z"/>
		<path class="st2" d="M2579.5,2320.2l-245.8-2.1c-19.9-0.2-35.8-16.4-35.7-36.3l0,0c0.2-19.1,15.2-34.8,34.3-35.6l245.9-11.1
			c20.6-0.9,37.8,15.6,37.6,36.2l-0.1,13.2C2615.6,2304.4,2599.4,2320.4,2579.5,2320.2z"/>
		<path class="st2" d="M2359.8,2656.6l-3.6,425.4c-0.4,46.2,36.8,84,83,84.4s84-36.8,84.4-83v-0.4l16.2-424.9L2359.8,2656.6z"/>
	</g>
</g>
<g>
	
		<linearGradient id="SVGID_00000131366624521104849290000002665243340600702093_" gradientUnits="userSpaceOnUse" x1="-261.7856" y1="1717.6613" x2="143.9106" y2="1717.6613" gradientTransform="matrix(1 0 0 -1 1016.0297 3710)">
		<stop  offset="0" style="stop-color:#09005D"/>
		<stop  offset="1" style="stop-color:#1A0F91"/>
	</linearGradient>
	<path style="fill:url(#SVGID_00000131366624521104849290000002665243340600702093_);" d="M1125.5,1851.9c0,0-0.2,0.2-0.4,0.5
		l-1.9,0.1c-0.2,0.3-2.3,0.8-2.3,1.3l0,0l1.8,0.6c0,0.6,0.8,1.4,0.7,2.2l0.4,0.4c-2.1,12.6-13.6,46.9-26.2,91.4
		c-0.1,0.4-0.1,0.8-0.2,1.1c-28.2,99.8-69,249.9-81.3,319.4c0,0-21.8,10.8-55.7,16.2h-0.1c-49,10.7-122.9,20.5-191.7,2.5
		c0,0-37-301.7,7.8-563.2c0,0,117.5-29.3,244.3-37.3c0.7,0,1.3,2.2,2,2.2c10.2-0.6,20.5,1.4,30.8,1.4h8.2c1.1,0,2.2,0,3.4,0h0.2
		c5.3,0,14.8,1.8,25.8,6.5c0.3,0.1,1-1,1-0.9l0.1-1c0,0,1.9,0.9,2.8,1.2c1.3,0.5,2.6,1.1,3.9,1.7c0.3,0.2,0.6,0.3,0.9,0.4
		c0.1,0.1,0.3,0.1,0.4,0.2c0.9,0.4,1.8,0.9,2.7,1.3c0.2,0.1,0.4,0.2,0.5,0.2c1.1,0.5,2.1,1.1,3.2,1.7c0.2,0.1-0.7,0.2-0.5,0.3
		c1.3,0.7,2.9,1.3,4.2,2c1.2,0.6,2.1,1.3,2.2,2l0.2-1.1c0.6,0.3,1.3,0.7,1.9,1.1c0,0,0.1,0,0.2,0.1c6.8,4,13.6,8.6,19.9,13.9
		c0,0,0,0.1,0.1,0.1c0.1,0.1,0.2,0.3,0.3,0.4C1163.2,1768.3,1176.4,1845.6,1125.5,1851.9z"/>
	<g>
		<path class="st19" d="M1422.2,1930.2c-127.8-13.5-187.8-112-235.3-174.6c-62.7-82.7-132-68.4-132-68.4l42.4,182.4
			c94.8,151.1,230.5,158.3,321.7,141C1428.3,1979.9,1426.8,1951.8,1422.2,1930.2z"/>
		<path class="st19" d="M1614.2,1901.7l-46.5,11.3c-56.7,17.1-104.5,21.4-145.5,17.1c4.5,21.7,6.1,49.8-3.2,80.4
			c58-11,98.1-31.9,98.1-31.9C1623.8,1947.6,1614.2,1901.7,1614.2,1901.7z"/>
	</g>
	
		<linearGradient id="SVGID_00000164493253032184122210000016686973014791190149_" gradientUnits="userSpaceOnUse" x1="-479.9691" y1="1601.2869" x2="-1063.7404" y2="854.403" gradientTransform="matrix(0.9678 0.2516 0.2516 -0.9678 1917.9429 3464.9097)">
		<stop  offset="0" style="stop-color:#FEBBBA"/>
		<stop  offset="1" style="stop-color:#FF928E"/>
	</linearGradient>
	<path style="fill:url(#SVGID_00000164493253032184122210000016686973014791190149_);" d="M1719.5,1990.5c-0.4-9.4-5-18.2-12.6-23.8
		l-74.1-54.8c0,0,1.5-10.9,22.1-13.3c20.6-2.3,21.7-24.5,21.7-24.5s-28.6,5-71,13.8c-24.2,5-41.1,20.6-51.1,33l14,33.6
		c47,28.6,97.9,45,151.6,52.4L1719.5,1990.5z"/>
	
		<linearGradient id="SVGID_00000010305083704184662440000004071460682531829891_" gradientUnits="userSpaceOnUse" x1="48.781" y1="2023.8501" x2="50.3704" y2="2023.8501" gradientTransform="matrix(1 0 0 -1 1016.0297 3710)">
		<stop  offset="0" style="stop-color:#09005D"/>
		<stop  offset="1" style="stop-color:#1A0F91"/>
	</linearGradient>
	<path style="fill:url(#SVGID_00000010305083704184662440000004071460682531829891_);" d="M1066.4,1686.2c-0.4,0-0.9,0-1.3,0
		c-0.1,0-0.2,0-0.3-0.1L1066.4,1686.2z"/>
	
		<linearGradient id="SVGID_00000078034500120649884070000000058247478419086228_" gradientUnits="userSpaceOnUse" x1="72.5926" y1="2025.2295" x2="72.4679" y2="2025.0359" gradientTransform="matrix(1 0 0 -1 1016.0297 3710)">
		<stop  offset="0" style="stop-color:#53EAC9"/>
		<stop  offset="0.9964" style="stop-color:#45AED8"/>
	</linearGradient>
	<path style="fill:url(#SVGID_00000078034500120649884070000000058247478419086228_);" d="M1088.7,1684.6
		C1088.7,1684.6,1088.7,1684.6,1088.7,1684.6S1088.7,1684.6,1088.7,1684.6z"/>
	
		<linearGradient id="SVGID_00000124852303168164737540000002202928666710608005_" gradientUnits="userSpaceOnUse" x1="75.8039" y1="2024.9915" x2="75.6126" y2="2024.6942" gradientTransform="matrix(1 0 0 -1 1016.0297 3710)">
		<stop  offset="0" style="stop-color:#53EAC9"/>
		<stop  offset="0.9964" style="stop-color:#45AED8"/>
	</linearGradient>
	<path style="fill:url(#SVGID_00000124852303168164737540000002202928666710608005_);" d="M1092.1,1684.8l-0.2,0.1v-0.2
		C1092,1684.7,1092,1684.8,1092.1,1684.8z"/>
	
		<linearGradient id="SVGID_00000006686951632251135840000010740494398458214540_" gradientUnits="userSpaceOnUse" x1="203.7021" y1="654.1129" x2="-437.0134" y2="-42.8066" gradientTransform="matrix(1 0 0 -1 1016.0297 3710)">
		<stop  offset="0" style="stop-color:#09005D"/>
		<stop  offset="1" style="stop-color:#1A0F91"/>
	</linearGradient>
	<path style="fill:url(#SVGID_00000006686951632251135840000010740494398458214540_);" d="M1017.2,3107.8c0,0-6.6,37.6-9.9,74.7
		c-1.3,14.5,9.9,27.2,24.5,27.8c49.5,2.1,155.4,6.1,193.5,4.4c5.7-0.3,9.4-6.1,7.3-11.4l0,0c-1.8-4.5-5.2-8.1-9.5-10.1l-175-80.4
		L1017.2,3107.8z"/>
	
		<linearGradient id="SVGID_00000161602494872848889530000015276143885052020362_" gradientUnits="userSpaceOnUse" x1="-4.3297" y1="602.4232" x2="52.5703" y2="602.4232" gradientTransform="matrix(1 0 0 -1 1016.0297 3710)">
		<stop  offset="0" style="stop-color:#FEBBBA"/>
		<stop  offset="1" style="stop-color:#FF928E"/>
	</linearGradient>
	<path style="fill:url(#SVGID_00000161602494872848889530000015276143885052020362_);" d="M1011.7,3085.7l5.3,44.9
		c0,0,30.6,14.3,51.6-1.8l-12.7-50.1L1011.7,3085.7z"/>
	
		<linearGradient id="SVGID_00000008849433157544774140000004580397484918070717_" gradientUnits="userSpaceOnUse" x1="254.1679" y1="1442.2502" x2="-291.0197" y2="703.3185" gradientTransform="matrix(1 0 0 -1 1016.0297 3710)">
		<stop  offset="0" style="stop-color:#09005D"/>
		<stop  offset="1" style="stop-color:#1A0F91"/>
	</linearGradient>
	<path style="fill:url(#SVGID_00000008849433157544774140000004580397484918070717_);" d="M1015.7,2241
		c-2.3,11.7-12.4,585.5,49,842.7c1,4.2-1.1,8.5-5.1,10.2c-9.4,3.8-27.8,9.4-50,10.2c-6.8,0.2-13-4.2-14.9-10.8
		c-17.5-59.7-101.5-358.6-112.5-644.1c-12.2-319.1,0-10.9,0-10.9l7.2-197.2L1015.7,2241z"/>
	
		<linearGradient id="SVGID_00000178173904969883109150000000422695021503500722_" gradientUnits="userSpaceOnUse" x1="59.9472" y1="786.275" x2="-580.77" y2="89.3539" gradientTransform="matrix(1 0 0 -1 1016.0297 3710)">
		<stop  offset="0" style="stop-color:#09005D"/>
		<stop  offset="1" style="stop-color:#1A0F91"/>
	</linearGradient>
	<path style="fill:url(#SVGID_00000178173904969883109150000000422695021503500722_);" d="M815.9,3127.4c0,0-10.6,19-20.8,69.4
		c-1.8,9.1,4.5,17.8,13.8,18.7c16.4,1.6,41.5,3.7,61.7,3.5c9.3-0.1,16.5-8.2,15.4-17.4c-2.2-18.4-9.2-48.6-30.7-72.1L815.9,3127.4z"
		/>
	
		<linearGradient id="SVGID_00000109023545301492288860000000996715059549092491_" gradientUnits="userSpaceOnUse" x1="-209.4297" y1="605.3281" x2="-160.2919" y2="605.3281" gradientTransform="matrix(1 0 0 -1 1016.0297 3710)">
		<stop  offset="0" style="stop-color:#FEBBBA"/>
		<stop  offset="1" style="stop-color:#FF928E"/>
	</linearGradient>
	<path style="fill:url(#SVGID_00000109023545301492288860000000996715059549092491_);" d="M806.6,3069.6l12.5,67.9
		c0,0,12.3,9.2,36.7,2.5l-5.9-73.1L806.6,3069.6z"/>
	
		<linearGradient id="SVGID_00000072255654961413324820000008097908834246144167_" gradientUnits="userSpaceOnUse" x1="156.9889" y1="1513.9501" x2="-388.1986" y2="775.0187" gradientTransform="matrix(1 0 0 -1 1016.0297 3710)">
		<stop  offset="0" style="stop-color:#09005D"/>
		<stop  offset="1" style="stop-color:#1A0F91"/>
	</linearGradient>
	<path style="fill:url(#SVGID_00000072255654961413324820000008097908834246144167_);" d="M773,2258.6
		c-50.2,302.7,10.9,748.3,31.5,835.5c1.3,5.3,5.6,9.4,11,10.3c9.2,1.5,24.3,2.8,39.2-1.6c5.1-1.5,8.8-6.1,9-11.5
		c2.8-70.5-2.2-503.3,44.5-674.3c2.4-8.7,7.7-16.2,15-21.4l90.7-64.5l7-104.3L773,2258.6z"/>
	<path class="st13" d="M834.1,1870l-57.7-145.6c0,0-140.4,95.4-163.5,216.4c26.5,2,74.8,8.9,122.1,32.7
		C745.3,1916.4,834.1,1870,834.1,1870z"/>
	
		<linearGradient id="SVGID_00000103246086154379898450000017395111100517350795_" gradientUnits="userSpaceOnUse" x1="-270.8098" y1="1956.4955" x2="-201.5283" y2="1993.174" gradientTransform="matrix(1 0 0 -1 1016.0297 3710)">
		<stop  offset="0" style="stop-color:#FEBBBA"/>
		<stop  offset="1" style="stop-color:#FF928E"/>
	</linearGradient>
	<path style="fill:url(#SVGID_00000103246086154379898450000017395111100517350795_);" d="M940.3,1562.9l-47.8,138.3
		c-0.8,2.3,0.1,4.8,2.3,6c13,7.2,60,28,116.6-7.8c5.9-3.7,9.9-9.8,10.8-16.8l15.5-119.7H940.3z"/>
	<path class="st13" d="M849.5,1708.8l57.1-48.5l85.4,208.5l-62.3,828.4l-194.4,5.8c-1.4,0-2.7-0.5-3.7-1.5s-1.5-2.3-1.4-3.7
		l27.1-796.9c0,0,0.7-172.2,19-176.5C794.7,1720.1,849.5,1708.8,849.5,1708.8z"/>
	<path class="st19" d="M1121.2,1852.5l-0.3,1.3l0,0l1.8,0.6l0.7,2.2l-4,0.4l-19.9,164.5c0,0,0,0,0,0.1l-63.5,686.3
		c-0.2,1.4,1.6,2.6,0.5,3.5c-1.1,0.8-1.3,1.2-2.6,1l-104.7-15.2l30.8-411.9l0.2-0.6l31-426.6l28-171.3v-0.1l5.2-26.4l28.7,24.9h0.6
		l8.2,0.4l3.4,0.2c5.2,1.4,26.6,9.5,26.6,9.5c0,0.1,7.5,3.3,11.1,5.1c0.2,0.1,0.3,0.2,0.4,0.2c1.1,0.5,2.1,1.1,3.2,1.7
		c0.2,0.1-0.8,0.2-0.6,0.3c2.2,1.2,4.2,2.6,4.2,4v0.1l10.7,145.3v0.5L1121.2,1852.5z"/>
	
		<linearGradient id="SVGID_00000132045861795427560900000005921436523557341839_" gradientUnits="userSpaceOnUse" x1="-1.9206" y1="1800.5706" x2="262.9714" y2="1991.2045" gradientTransform="matrix(1 0 0 -1 1016.0297 3710)">
		<stop  offset="0" style="stop-color:#9CFFFB"/>
		<stop  offset="1" style="stop-color:#9BFFFA"/>
	</linearGradient>
	<polygon style="fill:url(#SVGID_00000132045861795427560900000005921436523557341839_);" points="1024.5,1867.1 1024.5,1887.4 
		1099.4,1882.9 1099.4,1860.4 	"/>
	<path class="st2" d="M987.4,1916.8c-0.3,0-0.7-0.1-1-0.2l-65.6-35.2c-0.6-0.3-1-0.9-1.1-1.5l-9-60.5l-23.9-4.2
		c-0.8-0.1-1.4-0.7-1.6-1.4l-25.3-82.2c-0.3-1.1,0.3-2.2,1.3-2.5c1.1-0.3,2.2,0.3,2.5,1.3l24.9,81l24.2,4.3c0.9,0.2,1.5,0.8,1.7,1.7
		l9.1,60.9l64.7,34.7c1,0.5,1.4,1.8,0.8,2.8C988.8,1916.4,988.1,1916.8,987.4,1916.8z"/>
	<path class="st2" d="M1003,1896.5c-0.3,0-0.5-0.1-0.8-0.2c-0.7-0.4-1-1.4-0.6-2.1l34.4-60.4l-5.7-34.1c-0.1-0.6,0.2-1.3,0.8-1.6
		l27.7-14.7l-7-98.1c-0.1-0.8,0.6-1.6,1.4-1.6c0.9,0,1.6,0.6,1.6,1.4l7.1,99.1c0,0.6-0.3,1.2-0.8,1.5l-27.6,14.7l5.6,33.6
		c0.1,0.3,0,0.7-0.2,1l-34.7,60.8C1004,1896.3,1003.5,1896.5,1003,1896.5z"/>
	<g>
		<path class="st13" d="M956.9,2002.7c0,0-157.7,89.1-210.8,13c-11-15.8-13.7-31.5-11-46.5c-47.3-23.9-95.5-30.8-122.1-32.7
			c-7,36.5-3.3,75.3,18.1,114.5c93.2,170.5,346.6-9.4,346.6-9.4L956.9,2002.7z"/>
		<g>
			
				<linearGradient id="SVGID_00000026156788346787074190000006701249646467900582_" gradientUnits="userSpaceOnUse" x1="73.0666" y1="1941.158" x2="275.3878" y2="1098.1505" gradientTransform="matrix(1 0 0 -1 1016.0297 3710)">
				<stop  offset="0" style="stop-color:#4F52FF"/>
				<stop  offset="1" style="stop-color:#4042E2"/>
			</linearGradient>
			<path style="fill:url(#SVGID_00000026156788346787074190000006701249646467900582_);" d="M938,2115.4l86-300.5
				c1-3.4,3.9-5.9,7.4-6.3c15.6-1.8,60.8-6.9,112.9-11.3c62.8-5.3,135.8-9.6,179.4-6c6.2,0.5,9.9,7.1,7.2,12.7
				c-24.8,50.2-126.8,254.2-177.8,321c-1.7,2.2-4.3,3.5-7.1,3.5l-199.6-1.9C940.6,2126.6,936.4,2121,938,2115.4z"/>
			
				<linearGradient id="SVGID_00000060751490235900323060000018008068572052900274_" gradientUnits="userSpaceOnUse" x1="1296.4524" y1="2194.4136" x2="1230.5774" y2="2042.2196" gradientTransform="matrix(1 0 0 -1 0 3710)">
				<stop  offset="0" style="stop-color:#4F52FF"/>
				<stop  offset="1" style="stop-color:#4042E2"/>
			</linearGradient>
			<path style="fill:url(#SVGID_00000060751490235900323060000018008068572052900274_);" d="M1153.3,1771.2l62.4-10.4
				c3.3-0.6,6,2.6,5,5.8l-6.2,18.7c-0.5,1.6-2,2.8-3.7,3l-60,8c-3.1,0.4-5.7-2.4-5-5.5l3.8-16.3
				C1150.1,1772.9,1151.5,1771.5,1153.3,1771.2z"/>
			
				<linearGradient id="SVGID_00000109011289995602161780000011581395073358224817_" gradientUnits="userSpaceOnUse" x1="1302.5022" y1="2191.7949" x2="1236.6273" y2="2039.601" gradientTransform="matrix(1 0 0 -1 0 3710)">
				<stop  offset="0" style="stop-color:#4F52FF"/>
				<stop  offset="1" style="stop-color:#4042E2"/>
			</linearGradient>
			<path style="fill:url(#SVGID_00000109011289995602161780000011581395073358224817_);" d="M1106.6,1824l5.1-26.8
				c0.5-2.7,2.7-4.7,5.5-5l126-12.8c4.2-0.4,7.6,3.5,6.6,7.6l-8,33.4c-0.6,2.7-3,4.6-5.7,4.7l-123.1,6.2
				C1109,1831.6,1105.8,1828,1106.6,1824z"/>
			
				<linearGradient id="SVGID_00000031190576453852135200000007981205924396369819_" gradientUnits="userSpaceOnUse" x1="-65.5631" y1="1718.1768" x2="49.0703" y2="1718.1768" gradientTransform="matrix(1 0 0 -1 1016.0297 3710)">
				<stop  offset="0" style="stop-color:#FEBBBA"/>
				<stop  offset="1" style="stop-color:#FF928E"/>
			</linearGradient>
			<path style="fill:url(#SVGID_00000031190576453852135200000007981205924396369819_);" d="M958.8,2042.8c0,0-12-49.3-7.2-66.8
				s14.2-40,45.4-35c31.2,5,68.1,18.1,68.1,18.1s-1.9,22.8-25.6,15.4l14.7,11.4c0,0-2.1,18.2-22.1,8.5l13.7,15.1
				c0,0-8.6,15-23.4,5.4C1007.7,2005.4,1000.6,2048.7,958.8,2042.8z"/>
		</g>
	</g>
	<path class="st2" d="M808.5,2046.9c-14.6,0-28.1-2.2-38.3-7.8c-1-0.5-1.3-1.8-0.8-2.8s1.8-1.3,2.8-0.8
		c42,23.1,145.7-16.4,146.7-16.8c0.3-0.1,20.4-7.1,27.6-21.2c0.5-1,1.7-1.4,2.7-0.9s1.4,1.7,0.9,2.7c-8,15.5-29,22.8-29.9,23.1
		C917.1,2023.8,856.4,2046.9,808.5,2046.9z"/>
	<path class="st2" d="M751.7,2124.6c-1.1,0-2,0-2-1.1s0.8-1.6,2-1.7c119.7-4.1,187.9-58.7,188.6-59.3c0.9-0.7,2.2-0.5,2.9,0.4
		s0.6,1.4-0.3,2.1C942.1,2065.5,872.8,2124.6,751.7,2124.6L751.7,2124.6z"/>
	<g>
		
			<linearGradient id="SVGID_00000166638083513837952250000017661475207789763200_" gradientUnits="userSpaceOnUse" x1="-4196.8232" y1="1936.5404" x2="-4395.3691" y2="1784.6227" gradientTransform="matrix(0.9899 0.1417 0.1417 -0.9899 4943.9297 4014.0076)">
			<stop  offset="0" style="stop-color:#FEBBBA"/>
			<stop  offset="1" style="stop-color:#FF928E"/>
		</linearGradient>
		<path style="fill:url(#SVGID_00000166638083513837952250000017661475207789763200_);" d="M1066.6,1431.8c0,0,23.1,83.9,19.5,125.7
			c-3.6,41.8,1.5,70-47.7,71.4c-49.1,1.5-86.1-28.2-102.1-72.6c0,0-25.2-68.5-13.7-93.5C934,1437.9,1066.6,1431.8,1066.6,1431.8z"/>
		
			<linearGradient id="SVGID_00000134929770246477938400000017910294695275539871_" gradientUnits="userSpaceOnUse" x1="4120.2358" y1="2148.4187" x2="4482.5278" y2="1681.9688" gradientTransform="matrix(-0.9899 -0.1417 0.1417 -0.9899 4906.8721 4008.3894)">
			<stop  offset="0" style="stop-color:#09005D"/>
			<stop  offset="1" style="stop-color:#1A0F91"/>
		</linearGradient>
		<path style="fill:url(#SVGID_00000134929770246477938400000017910294695275539871_);" d="M870.9,1436.4c10.5-6.5,17.3-4.3,21.3-1
			c1.1,0.9,2.5,1,3.6,0.4c0.1-1.2,8.1-87,125-71.9c12.1,1.6,24-4.4,30.1-15c13.8-24.3,40-60.1,59.8-25.2
			c28.2,49.7,36.5,115-43.3,128.5c-4.7,0.8-9.5,1.4-14.3,1.9c-32.9,8.1-70.4,10.7-84.3,14.2c-23.2,5.9-5.5,59.9-5.5,59.9l-6.1-0.9
			l-12.9-1.8c-1.9-0.3-3.7,1.9-3.9,3.7l-3,36.9c-0.1,1.6-1.4,3-3,3.2c-5.9,0.6-21.2,0.1-44.8-17.2c-23-16.9-12-25.5-4.9-28.7
			c2-0.9,2.4-3.5,0.9-5.2C854.2,1484.1,852.7,1447.8,870.9,1436.4z"/>
		
			<linearGradient id="SVGID_00000156566101444901910860000005801004722705082554_" gradientUnits="userSpaceOnUse" x1="-4221.4639" y1="1968.7423" x2="-4420.0103" y2="1816.8236" gradientTransform="matrix(0.9899 0.1417 0.1417 -0.9899 4943.9297 4014.0076)">
			<stop  offset="0" style="stop-color:#FEBBBA"/>
			<stop  offset="1" style="stop-color:#FF928E"/>
		</linearGradient>
		<path style="fill:url(#SVGID_00000156566101444901910860000005801004722705082554_);" d="M957.4,1536.7c0,0-5.9-52.3-30.5-41.4
			s3.6,58.2,21.6,62.7L957.4,1536.7z"/>
		<path class="st2" d="M1088.1,1436.5c-0.4-0.1-0.8-0.3-1-0.6c-0.6-0.7-0.4-1.7,0.3-2.3c16.8-13.3,26-28.7,27.4-45.7
			c2.4-29.6-19.8-54.5-20.1-54.7c-0.6-0.7-0.6-1.7,0.1-2.3c0.7-0.6,1.7-0.6,2.3,0.1c1,1.1,23.4,26.2,20.9,57.2
			c-1.5,18-11.1,34.1-28.7,48C1088.9,1436.4,1088.5,1436.5,1088.1,1436.5z"/>
	</g>
	
		<linearGradient id="SVGID_00000143588488026959035800000014114069300230775190_" gradientUnits="userSpaceOnUse" x1="72.5926" y1="2025.2295" x2="72.4679" y2="2025.0359" gradientTransform="matrix(1 0 0 -1 1016.0297 3710)">
		<stop  offset="0" style="stop-color:#53EAC9"/>
		<stop  offset="0.9964" style="stop-color:#45AED8"/>
	</linearGradient>
	<path style="fill:url(#SVGID_00000143588488026959035800000014114069300230775190_);" d="M1088.7,1684.6
		C1088.7,1684.6,1088.7,1684.6,1088.7,1684.6S1088.7,1684.6,1088.7,1684.6z"/>
</g>
</svg>
