<?xml version="1.0" encoding="utf-8"?>
<!-- Generator: Adobe Illustrator 25.4.1, SVG Export Plug-In . SVG Version: 6.00 Build 0)  -->
<svg version="1.1" id="레이어_1" xmlns="http://www.w3.org/2000/svg" xmlns:xlink="http://www.w3.org/1999/xlink" x="0px"
	 y="0px" viewBox="0 0 3710 3710" style="enable-background:new 0 0 3710 3710;" xml:space="preserve">
<style type="text/css">
	.st0{fill:url(#SVGID_1_);}
	.st1{fill:#7D97F4;}
	.st2{fill:#91B3FA;}
	.st3{fill:#BDD0FB;}
	.st4{fill:url(#SVGID_00000012449364011920894130000000292357445558285990_);}
	.st5{opacity:0.49;fill:#FFFFFF;enable-background:new    ;}
	.st6{fill:url(#SVGID_00000176017813008745515740000012839753845492524986_);}
	.st7{fill:url(#SVGID_00000146495932977278283020000016369416797922474173_);}
	.st8{fill:url(#SVGID_00000156573459331860431840000004256134953335597191_);}
	.st9{fill:url(#SVGID_00000175283726976288070800000011805182318672460212_);}
	.st10{fill:url(#SVGID_00000071528291036381603600000011521597717772621192_);}
	.st11{fill:url(#SVGID_00000064343861370733064550000008352733149992602539_);}
	.st12{fill:url(#SVGID_00000174561931651376143380000016376554045905918865_);}
	.st13{fill:url(#SVGID_00000018947532896894423750000002162107490978693038_);}
	.st14{fill:url(#SVGID_00000041983303855550753050000001513146544836967856_);}
	.st15{fill:url(#SVGID_00000001659664485141213310000013323179321971167151_);}
	.st16{fill:url(#SVGID_00000078038528227007749440000011292582335717562508_);}
	.st17{fill:url(#SVGID_00000000204992157225084980000006521318107660989356_);}
	.st18{fill:url(#SVGID_00000023970433283451057760000001104118427394540937_);}
	.st19{fill:#FFFFFF;}
	.st20{fill:url(#SVGID_00000124134897492336116360000006933303557840698550_);}
	.st21{fill:url(#SVGID_00000001637793628643866520000004144221935204000407_);}
	.st22{fill:url(#SVGID_00000117652908727395919990000018172865509719672500_);}
	.st23{fill:url(#SVGID_00000000934706987207733730000016676812450166788768_);}
	.st24{fill:url(#SVGID_00000135649307808727293160000018076611869828126086_);}
	.st25{fill:url(#SVGID_00000095300895907563740170000005350183490298120603_);}
	.st26{fill:url(#SVGID_00000131363296195675349740000003288472925951005612_);}
	.st27{fill:url(#SVGID_00000101082973149091326110000014091410660135977146_);}
	.st28{fill:url(#SVGID_00000147189634290582085750000004586704828001994647_);}
	.st29{fill:url(#SVGID_00000005243870644831950040000008807610955037265571_);}
</style>
<g id="Illustration">
	<g>
		
			<linearGradient id="SVGID_1_" gradientUnits="userSpaceOnUse" x1="3454.5049" y1="417.1669" x2="1372.1666" y2="2239.2109" gradientTransform="matrix(1 0 0 -1 0 3710)">
			<stop  offset="0" style="stop-color:#DAE3FE"/>
			<stop  offset="1" style="stop-color:#E9EFFD"/>
		</linearGradient>
		<path class="st0" d="M3100.6,2346.6c-269.1,633.7-986,988.7-1607.7,892.9c-101.2-15.6-378.5-62-624-281
			C396.2,2537,295.1,1702.3,676.4,1114.1c277.5-428.1,775-670.8,1247.7-658.7c101.8,2.6,492,18.7,835,301.5
			c50.4,41.5,161.5,140.2,261.6,296.8C3255.7,1421.4,3276,1933.7,3100.6,2346.6z"/>
		<g>
			<path class="st1" d="M2044.5,2923.4c0,0-199.7-1297.6-769.2-2042.4c-38.3-50.1-116.7-38.2-138.2,21
				C993.7,1298.3,682.5,2510.3,2044.5,2923.4z"/>
			<path class="st2" d="M1924.2,2831.1c2.9,3.3-1.6,7.8-4.9,4.9c-121-105.9-580.6-615.7-689.2-1567.1c-0.3-3.1,4.2-3.8,4.8-0.8
				C1279.9,1490.2,1471,2311.2,1924.2,2831.1z"/>
		</g>
		<g>
			<path class="st2" d="M1744.7,2807.7c0,0-562.2-831.5-1199.2-1160c-42.8-22.1-93.2,11.7-88.6,59.7
				C487.4,2028.1,668.5,2967.4,1744.7,2807.7z"/>
			<path class="st3" d="M1631.4,2783.3c3.1,1.3,1.4,5.9-1.8,5c-118.2-33.7-602.5-235.7-988.5-857.7c-1.2-2,1.6-4,3-2.1
				C747.9,2067.2,1148.3,2572.1,1631.4,2783.3z"/>
		</g>
		<g>
			<g>
				
					<linearGradient id="SVGID_00000026121746858772036250000013210195116655763374_" gradientUnits="userSpaceOnUse" x1="1214.4945" y1="1239.5974" x2="2611.906" y2="1239.5974" gradientTransform="matrix(1 0 0 -1 0 3710)">
					<stop  offset="0" style="stop-color:#FF928E"/>
					<stop  offset="1" style="stop-color:#FE7062"/>
				</linearGradient>
				<path style="fill:url(#SVGID_00000026121746858772036250000013210195116655763374_);" d="M2063.7,2038.6l2.2-315l-286.8-2.4
					l-2,296c-1.4,158.7-53.7,312.8-149.3,439.4l-382.1,506.1c-20,26.4-30.9,58.6-31.2,91.7v0.2c-0.7,85.3,67.8,155,153.1,155.7
					l1088.6,9.3c85.3,0.7,155-67.8,155.7-153.1l0,0c0.3-33.3-10.2-65.7-29.8-92.6l-387-528.1
					C2108.5,2327.7,2062.5,2184.9,2063.7,2038.6z"/>
				<path class="st5" d="M1367.9,3171.6c-63.9-0.5-115.4-52.9-114.8-116.8c0.2-24.9,8.5-49.3,23.4-69l382.1-506.1
					c99.9-132.3,155.7-296.5,157.1-462.3l1.7-257.4l209.6,1.8l-1.9,276.5c-1.3,153.5,48,306.4,138.8,430.3l387,528.1
					c14.6,20,22.6,44.6,22.4,69.4c-0.5,63.8-52.9,115.4-116.8,114.8L1367.9,3171.6z"/>
				
					<linearGradient id="SVGID_00000168096072966682303620000003540890791176064130_" gradientUnits="userSpaceOnUse" x1="1726.4984" y1="1982.3705" x2="2118.9014" y2="1982.3705" gradientTransform="matrix(1 0 0 -1 0 3710)">
					<stop  offset="0" style="stop-color:#FF928E"/>
					<stop  offset="1" style="stop-color:#FE7062"/>
				</linearGradient>
				<path style="fill:url(#SVGID_00000168096072966682303620000003540890791176064130_);" d="M2073.9,1780.2l-303.4-2.6
					c-24.5-0.2-44.2-20.3-44-44.8l0,0c0.2-23.6,18.8-42.9,42.4-44l303.6-13.7c25.4-1.1,46.6,19.3,46.4,44.7l-0.1,16.3
					C2118.5,1760.7,2098.5,1780.4,2073.9,1780.2z"/>
				
					<linearGradient id="SVGID_00000153670233329767884700000014077108129943186088_" gradientUnits="userSpaceOnUse" x1="2219.2632" y1="1133.4452" x2="-531.9424" y2="-3069.1895" gradientTransform="matrix(1 8.500000e-03 8.500000e-03 -1 8.4933 3688.5764)">
					<stop  offset="0" style="stop-color:#FF928E"/>
					<stop  offset="1" style="stop-color:#FE7062"/>
				</linearGradient>
				<path style="fill:url(#SVGID_00000153670233329767884700000014077108129943186088_);" d="M1276.4,2985.8
					c-14.9,19.7-23.2,44.1-23.4,69c-0.5,63.8,51,116.2,114.8,116.8l1088.6,9.3c63.9,0.5,116.2-51,116.8-114.8
					c0.2-24.8-7.7-49.4-22.4-69.4L2378,2760.8l-925.7-7.9L1276.4,2985.8z"/>
			</g>
			<g>
				<path class="st1" d="M2742.5,3221.9L2742.5,3221.9c-60.4-0.5-108.9-49.9-108.4-110.3l6.7-782.4l242.6,2.1l-30.6,782.2
					C2852.2,3173.9,2802.8,3222.4,2742.5,3221.9z"/>
				<path class="st5" d="M2742.7,3196.3c-46.2-0.4-83.4-38.3-83-84.4l6.7-782.4l190.5,1.6l-29.8,781.8v0.4
					C2826.7,3159.4,2788.8,3196.6,2742.7,3196.3z"/>
				<path class="st2" d="M2883,2350.1l-245.8-2.1c-19.9-0.2-35.8-16.4-35.7-36.3l0,0c0.2-19.1,15.2-34.8,34.3-35.6l245.9-11.1
					c20.6-0.9,37.8,15.6,37.6,36.2l-0.1,13.2C2919.1,2334.3,2902.9,2350.3,2883,2350.1z"/>
				<path class="st2" d="M2663.3,2686.5l-3.6,425.4c-0.4,46.2,36.8,84,83,84.4s84-36.8,84.4-83v-0.4l16.2-424.9L2663.3,2686.5z"/>
			</g>
			<g>
				<path class="st1" d="M2409.1,3226.8L2409.1,3226.8c-60.4-0.5-108.9-49.9-108.4-110.3l6.7-782.4l242.6,2.1l-30.6,782.2
					C2518.8,3178.8,2469.4,3227.3,2409.1,3226.8z"/>
				<path class="st5" d="M2409.3,3201.2c-46.2-0.4-83.4-38.3-83-84.4l6.7-782.4l190.5,1.6l-29.8,781.8v0.4
					C2493.3,3164.4,2455.4,3201.6,2409.3,3201.2z"/>
				<path class="st2" d="M2549.6,2355l-245.8-2.1c-19.9-0.2-35.8-16.4-35.7-36.3l0,0c0.2-19.1,15.2-34.8,34.3-35.6l245.9-11.1
					c20.6-0.9,37.8,15.6,37.6,36.2l-0.1,13.2C2585.7,2339.3,2569.5,2355.2,2549.6,2355z"/>
				<path class="st2" d="M2329.9,2691.4l-3.6,425.4c-0.4,46.2,36.8,84,83,84.4s84-36.8,84.4-83v-0.4l16.2-424.9L2329.9,2691.4z"/>
			</g>
		</g>
		<g>
			
				<linearGradient id="SVGID_00000011743734912779808620000007923008699838322841_" gradientUnits="userSpaceOnUse" x1="-291.6857" y1="1682.7614" x2="114.0106" y2="1682.7614" gradientTransform="matrix(1 0 0 -1 1016.0297 3710)">
				<stop  offset="0" style="stop-color:#09005D"/>
				<stop  offset="1" style="stop-color:#1A0F91"/>
			</linearGradient>
			<path style="fill:url(#SVGID_00000011743734912779808620000007923008699838322841_);" d="M1095.6,1886.7c0,0-0.2,0.2-0.4,0.5
				l-1.9,0.1c-0.2,0.3-2.3,0.8-2.3,1.3l0,0l1.8,0.6c0,0.6,0.8,1.4,0.7,2.2l0.4,0.4c-2.1,12.6-13.6,46.9-26.2,91.4
				c-0.1,0.4-0.1,0.8-0.2,1.1c-28.2,99.8-69,249.9-81.3,319.5c0,0-21.8,10.8-55.7,16.2h-0.1c-49,10.7-122.9,20.5-191.7,2.5
				c0,0-37-301.7,7.8-563.2c0,0,117.5-29.3,244.3-37.3c0.7,0,1.3,2.2,2,2.2c10.2-0.6,20.5,1.4,30.8,1.4h8.2c1.1,0,2.2,0,3.4,0h0.2
				c5.3,0,14.8,1.8,25.8,6.5c0.3,0.1,1-1,1-0.9l0.1-1c0,0,1.9,0.9,2.8,1.2c1.3,0.5,2.6,1.1,3.9,1.7c0.3,0.2,0.6,0.3,0.9,0.4
				c0.1,0.1,0.3,0.1,0.4,0.2c0.9,0.4,1.8,0.9,2.7,1.3c0.2,0.1,0.4,0.2,0.5,0.2c1.1,0.5,2.1,1.1,3.2,1.7c0.2,0.1-0.7,0.2-0.5,0.3
				c1.3,0.7,2.9,1.3,4.2,2c1.2,0.6,2.1,1.3,2.2,2l0.2-1.1c0.6,0.3,1.3,0.7,1.9,1.1c0,0,0.1,0,0.2,0.1c6.8,4,13.6,8.6,19.9,13.9
				c0,0,0,0.1,0.1,0.1c0.1,0.1,0.2,0.3,0.3,0.4C1133.3,1803.1,1146.5,1880.4,1095.6,1886.7z"/>
			<g>
				<path class="st3" d="M1392.4,1965c-127.8-13.5-187.8-112-235.3-174.6c-62.7-82.7-132-68.4-132-68.4l42.4,182.4
					c94.8,151.1,230.5,158.3,321.7,141C1398.4,2014.7,1396.9,1986.6,1392.4,1965z"/>
				<path class="st3" d="M1584.4,1936.5l-46.5,11.3c-56.7,17.1-104.5,21.4-145.5,17.1c4.5,21.7,6.1,49.8-3.2,80.4
					c58-11,98.1-31.9,98.1-31.9C1594,1982.4,1584.4,1936.5,1584.4,1936.5z"/>
			</g>
			
				<linearGradient id="SVGID_00000110459513556697195760000000014521669678625960_" gradientUnits="userSpaceOnUse" x1="-500.3606" y1="1559.8123" x2="-1084.1318" y2="812.9282" gradientTransform="matrix(0.9678 0.2516 0.2516 -0.9678 1918.2268 3464.6902)">
				<stop  offset="0" style="stop-color:#FEBBBA"/>
				<stop  offset="1" style="stop-color:#FF928E"/>
			</linearGradient>
			<path style="fill:url(#SVGID_00000110459513556697195760000000014521669678625960_);" d="M1689.6,2025.3
				c-0.4-9.4-5-18.2-12.6-23.8l-74.1-54.8c0,0,1.5-10.9,22.1-13.3c20.6-2.3,21.7-24.5,21.7-24.5s-28.6,5-71,13.8
				c-24.2,5-41.1,20.6-51.1,33l14,33.6c47,28.6,97.9,45,151.6,52.4L1689.6,2025.3z"/>
			
				<linearGradient id="SVGID_00000169523635938716913380000005829573547539798425_" gradientUnits="userSpaceOnUse" x1="18.9035" y1="1989.05" x2="20.4929" y2="1989.05" gradientTransform="matrix(1 0 0 -1 1016.0297 3710)">
				<stop  offset="0" style="stop-color:#09005D"/>
				<stop  offset="1" style="stop-color:#1A0F91"/>
			</linearGradient>
			<path style="fill:url(#SVGID_00000169523635938716913380000005829573547539798425_);" d="M1036.5,1721c-0.4,0-0.9,0-1.3,0
				c-0.1,0-0.2,0-0.3-0.1L1036.5,1721z"/>
			
				<linearGradient id="SVGID_00000174589547030550348310000001942375401496008069_" gradientUnits="userSpaceOnUse" x1="42.7697" y1="1990.3938" x2="42.645" y2="1990.2002" gradientTransform="matrix(1 0 0 -1 1016.0297 3710)">
				<stop  offset="0" style="stop-color:#53EAC9"/>
				<stop  offset="0.9964" style="stop-color:#45AED8"/>
			</linearGradient>
			<path style="fill:url(#SVGID_00000174589547030550348310000001942375401496008069_);" d="M1058.9,1719.4
				C1058.9,1719.4,1058.9,1719.4,1058.9,1719.4S1058.9,1719.4,1058.9,1719.4z"/>
			
				<linearGradient id="SVGID_00000023970905518715435630000002467249156180141496_" gradientUnits="userSpaceOnUse" x1="45.9101" y1="1990.2013" x2="45.7188" y2="1989.9042" gradientTransform="matrix(1 0 0 -1 1016.0297 3710)">
				<stop  offset="0" style="stop-color:#53EAC9"/>
				<stop  offset="0.9964" style="stop-color:#45AED8"/>
			</linearGradient>
			<path style="fill:url(#SVGID_00000023970905518715435630000002467249156180141496_);" d="M1062.2,1719.6l-0.2,0.1v-0.2
				C1062.1,1719.5,1062.2,1719.6,1062.2,1719.6z"/>
			
				<linearGradient id="SVGID_00000075860671903946089710000004289364259155437244_" gradientUnits="userSpaceOnUse" x1="173.8121" y1="619.3238" x2="-466.9034" y2="-77.5957" gradientTransform="matrix(1 0 0 -1 1016.0297 3710)">
				<stop  offset="0" style="stop-color:#09005D"/>
				<stop  offset="1" style="stop-color:#1A0F91"/>
			</linearGradient>
			<path style="fill:url(#SVGID_00000075860671903946089710000004289364259155437244_);" d="M987.3,3142.6c0,0-6.6,37.6-9.9,74.7
				c-1.3,14.5,9.9,27.2,24.5,27.8c49.5,2.1,155.4,6.1,193.5,4.4c5.7-0.3,9.4-6.1,7.3-11.4l0,0c-1.8-4.5-5.2-8.1-9.5-10.1l-175-80.4
				L987.3,3142.6z"/>
			
				<linearGradient id="SVGID_00000084510953753562323350000000855683020120602547_" gradientUnits="userSpaceOnUse" x1="-34.2297" y1="567.6232" x2="22.6702" y2="567.6232" gradientTransform="matrix(1 0 0 -1 1016.0297 3710)">
				<stop  offset="0" style="stop-color:#FEBBBA"/>
				<stop  offset="1" style="stop-color:#FF928E"/>
			</linearGradient>
			<path style="fill:url(#SVGID_00000084510953753562323350000000855683020120602547_);" d="M981.8,3120.5l5.3,44.9
				c0,0,30.6,14.3,51.6-1.8l-12.7-50.1L981.8,3120.5z"/>
			
				<linearGradient id="SVGID_00000116209589185079933910000003164326471906049466_" gradientUnits="userSpaceOnUse" x1="224.2757" y1="1407.4606" x2="-320.9119" y2="668.5289" gradientTransform="matrix(1 0 0 -1 1016.0297 3710)">
				<stop  offset="0" style="stop-color:#09005D"/>
				<stop  offset="1" style="stop-color:#1A0F91"/>
			</linearGradient>
			<path style="fill:url(#SVGID_00000116209589185079933910000003164326471906049466_);" d="M985.8,2275.8
				c-2.3,11.7-12.4,585.5,49,842.7c1,4.2-1.1,8.5-5.1,10.2c-9.4,3.8-27.8,9.4-50,10.2c-6.8,0.2-13-4.2-14.9-10.8
				c-17.5-59.7-101.5-358.6-112.5-644.1c-12.2-319.1,0-10.9,0-10.9l7.2-197.2L985.8,2275.8z"/>
			
				<linearGradient id="SVGID_00000141435053387408736690000007317864557010798749_" gradientUnits="userSpaceOnUse" x1="30.0572" y1="751.4859" x2="-610.6599" y2="54.5647" gradientTransform="matrix(1 0 0 -1 1016.0297 3710)">
				<stop  offset="0" style="stop-color:#09005D"/>
				<stop  offset="1" style="stop-color:#1A0F91"/>
			</linearGradient>
			<path style="fill:url(#SVGID_00000141435053387408736690000007317864557010798749_);" d="M786,3162.2c0,0-10.6,19-20.8,69.4
				c-1.8,9.1,4.5,17.8,13.8,18.7c16.4,1.6,41.5,3.7,61.7,3.5c9.3-0.1,16.5-8.2,15.4-17.4c-2.2-18.4-9.2-48.6-30.7-72.1L786,3162.2z"
				/>
			
				<linearGradient id="SVGID_00000165950457531835203530000004850355345939327678_" gradientUnits="userSpaceOnUse" x1="-239.3297" y1="570.5283" x2="-190.1918" y2="570.5283" gradientTransform="matrix(1 0 0 -1 1016.0297 3710)">
				<stop  offset="0" style="stop-color:#FEBBBA"/>
				<stop  offset="1" style="stop-color:#FF928E"/>
			</linearGradient>
			<path style="fill:url(#SVGID_00000165950457531835203530000004850355345939327678_);" d="M776.7,3104.4l12.5,67.9
				c0,0,12.3,9.2,36.7,2.5l-5.9-73.1L776.7,3104.4z"/>
			
				<linearGradient id="SVGID_00000085234899811556823220000014623619119521242286_" gradientUnits="userSpaceOnUse" x1="127.0964" y1="1479.1605" x2="-418.0911" y2="740.2291" gradientTransform="matrix(1 0 0 -1 1016.0297 3710)">
				<stop  offset="0" style="stop-color:#09005D"/>
				<stop  offset="1" style="stop-color:#1A0F91"/>
			</linearGradient>
			<path style="fill:url(#SVGID_00000085234899811556823220000014623619119521242286_);" d="M743.1,2293.4
				c-50.2,302.7,10.9,748.3,31.5,835.5c1.3,5.3,5.6,9.4,11,10.3c9.2,1.5,24.3,2.8,39.2-1.6c5.1-1.5,8.8-6.1,9-11.5
				c2.8-70.5-2.2-503.3,44.5-674.3c2.4-8.7,7.7-16.2,15-21.4l90.7-64.5l7-104.3L743.1,2293.4z"/>
			<path class="st19" d="M804.2,1904.8l-57.7-145.6c0,0-140.4,95.4-163.5,216.4c26.5,2,74.8,8.9,122.1,32.7
				C715.5,1951.2,804.2,1904.8,804.2,1904.8z"/>
			
				<linearGradient id="SVGID_00000021827636793069707970000017166948569797669563_" gradientUnits="userSpaceOnUse" x1="-300.6815" y1="1921.6843" x2="-231.4002" y2="1958.3627" gradientTransform="matrix(1 0 0 -1 1016.0297 3710)">
				<stop  offset="0" style="stop-color:#FEBBBA"/>
				<stop  offset="1" style="stop-color:#FF928E"/>
			</linearGradient>
			<path style="fill:url(#SVGID_00000021827636793069707970000017166948569797669563_);" d="M910.5,1597.7L862.6,1736
				c-0.8,2.3,0.1,4.8,2.3,6c13,7.2,60,28,116.6-7.8c5.9-3.7,9.9-9.8,10.8-16.8l15.5-119.7H910.5z"/>
			<path class="st19" d="M819.7,1743.6l57.1-48.5l85.4,208.5L899.9,2732l-194.4,5.8c-1.4,0-2.7-0.5-3.7-1.5s-1.5-2.3-1.4-3.7
				l27.1-796.9c0,0,0.7-172.2,19-176.5C764.8,1754.9,819.7,1743.6,819.7,1743.6z"/>
			<path class="st3" d="M1091.3,1887.3l-0.3,1.3l0,0l1.8,0.6l0.7,2.2l-4,0.4l-19.9,164.5c0,0,0,0,0,0.1l-63.5,686.3
				c-0.2,1.4,1.6,2.6,0.5,3.5c-1.1,0.8-1.3,1.2-2.6,1L899.3,2732l30.8-411.9l0.2-0.6l31-426.6l28-171.3v-0.1l5.2-26.4l28.7,24.9h0.6
				l8.2,0.4l3.4,0.2c5.2,1.4,26.6,9.5,26.6,9.5c0,0.1,7.5,3.3,11.1,5.1c0.2,0.1,0.3,0.2,0.4,0.2c1.1,0.5,2.1,1.1,3.2,1.7
				c0.2,0.1-0.8,0.2-0.6,0.3c2.2,1.2,4.2,2.6,4.2,4v0.1l10.7,145.3v0.5L1091.3,1887.3z"/>
			
				<linearGradient id="SVGID_00000146472229204169392730000012296266760565675169_" gradientUnits="userSpaceOnUse" x1="-31.789" y1="1765.7573" x2="233.1031" y2="1956.3912" gradientTransform="matrix(1 0 0 -1 1016.0297 3710)">
				<stop  offset="0" style="stop-color:#9CFFFB"/>
				<stop  offset="1" style="stop-color:#9BFFFA"/>
			</linearGradient>
			<polygon style="fill:url(#SVGID_00000146472229204169392730000012296266760565675169_);" points="994.6,1901.9 994.6,1922.2 
				1069.6,1917.7 1069.6,1895.2 			"/>
			<path class="st2" d="M957.5,1951.6c-0.3,0-0.7-0.1-1-0.2l-65.6-35.2c-0.6-0.3-1-0.9-1.1-1.5l-9-60.5l-23.9-4.2
				c-0.8-0.1-1.4-0.7-1.6-1.4l-25.3-82.2c-0.3-1.1,0.3-2.2,1.3-2.5c1.1-0.3,2.2,0.3,2.5,1.3l24.9,81l24.2,4.3
				c0.9,0.2,1.5,0.8,1.7,1.7l9.1,60.9l64.7,34.7c1,0.5,1.4,1.8,0.8,2.8C959,1951.2,958.3,1951.6,957.5,1951.6z"/>
			<path class="st2" d="M973.1,1931.3c-0.3,0-0.5-0.1-0.8-0.2c-0.7-0.4-1-1.4-0.6-2.1l34.4-60.4l-5.7-34.1c-0.1-0.6,0.2-1.3,0.8-1.6
				l27.7-14.7l-7-98.1c-0.1-0.8,0.6-1.6,1.4-1.6c0.9,0,1.6,0.6,1.6,1.4l7.1,99.1c0,0.6-0.3,1.2-0.8,1.5l-27.6,14.7l5.6,33.6
				c0.1,0.3,0,0.7-0.2,1l-34.7,60.8C974.2,1931.1,973.6,1931.3,973.1,1931.3z"/>
			<g>
				<path class="st19" d="M927.1,2037.5c0,0-157.7,89.1-210.8,13c-11-15.8-13.7-31.5-11-46.5c-47.3-23.9-95.5-30.8-122.1-32.7
					c-7,36.5-3.3,75.3,18.1,114.5c93.2,170.5,346.6-9.4,346.6-9.4L927.1,2037.5z"/>
				<g>
					
						<linearGradient id="SVGID_00000040555902177886341730000011643962145590134949_" gradientUnits="userSpaceOnUse" x1="43.1679" y1="1906.3524" x2="245.4892" y2="1063.345" gradientTransform="matrix(1 0 0 -1 1016.0297 3710)">
						<stop  offset="0" style="stop-color:#4F52FF"/>
						<stop  offset="1" style="stop-color:#4042E2"/>
					</linearGradient>
					<path style="fill:url(#SVGID_00000040555902177886341730000011643962145590134949_);" d="M908.1,2150.2l86-300.5
						c1-3.4,3.9-5.9,7.4-6.3c15.6-1.8,60.8-6.9,112.9-11.3c62.8-5.3,135.8-9.6,179.4-6c6.2,0.5,9.9,7.1,7.2,12.7
						c-24.8,50.2-126.8,254.2-177.8,321c-1.7,2.2-4.3,3.5-7.1,3.5l-199.6-1.9C910.7,2161.4,906.5,2155.8,908.1,2150.2z"/>
					
						<linearGradient id="SVGID_00000086680268366308263110000016507266840849196172_" gradientUnits="userSpaceOnUse" x1="1266.5558" y1="2159.6211" x2="1200.6808" y2="2007.4275" gradientTransform="matrix(1 0 0 -1 0 3710)">
						<stop  offset="0" style="stop-color:#4F52FF"/>
						<stop  offset="1" style="stop-color:#4042E2"/>
					</linearGradient>
					<path style="fill:url(#SVGID_00000086680268366308263110000016507266840849196172_);" d="M1123.4,1806l62.4-10.4
						c3.3-0.6,6,2.6,5,5.8l-6.2,18.7c-0.5,1.6-2,2.8-3.7,3l-60,8c-3.1,0.4-5.7-2.4-5-5.5l3.8-16.3
						C1120.2,1807.7,1121.6,1806.3,1123.4,1806z"/>
					
						<linearGradient id="SVGID_00000157304173487414912750000017439225117990435204_" gradientUnits="userSpaceOnUse" x1="1272.6057" y1="2157.0027" x2="1206.7307" y2="2004.8087" gradientTransform="matrix(1 0 0 -1 0 3710)">
						<stop  offset="0" style="stop-color:#4F52FF"/>
						<stop  offset="1" style="stop-color:#4042E2"/>
					</linearGradient>
					<path style="fill:url(#SVGID_00000157304173487414912750000017439225117990435204_);" d="M1076.7,1858.8l5.1-26.8
						c0.5-2.7,2.7-4.7,5.5-5l126-12.8c4.2-0.4,7.6,3.5,6.6,7.6l-8,33.4c-0.6,2.7-3,4.6-5.7,4.7l-123.1,6.2
						C1079.1,1866.4,1076,1862.8,1076.7,1858.8z"/>
					
						<linearGradient id="SVGID_00000062161347748615888250000000439614806536903080_" gradientUnits="userSpaceOnUse" x1="-95.463" y1="1683.3767" x2="19.1703" y2="1683.3767" gradientTransform="matrix(1 0 0 -1 1016.0297 3710)">
						<stop  offset="0" style="stop-color:#FEBBBA"/>
						<stop  offset="1" style="stop-color:#FF928E"/>
					</linearGradient>
					<path style="fill:url(#SVGID_00000062161347748615888250000000439614806536903080_);" d="M928.9,2077.6c0,0-12-49.3-7.2-66.8
						s14.2-40,45.4-35s68.1,18.1,68.1,18.1s-1.9,22.8-25.6,15.4l14.7,11.4c0,0-2.1,18.2-22.1,8.5l13.7,15.1c0,0-8.6,15-23.4,5.4
						C977.8,2040.2,970.7,2083.5,928.9,2077.6z"/>
				</g>
			</g>
			<path class="st2" d="M778.7,2081.7c-14.6,0-28.1-2.2-38.3-7.8c-1-0.5-1.3-1.8-0.8-2.8s1.8-1.3,2.8-0.8
				c42,23.1,145.7-16.4,146.7-16.8c0.3-0.1,20.4-7.1,27.6-21.2c0.5-1,1.7-1.4,2.7-0.9s1.4,1.7,0.9,2.7c-8,15.5-29,22.8-29.9,23.1
				C887.2,2058.6,826.5,2081.7,778.7,2081.7z"/>
			<path class="st2" d="M721.8,2159.4c-1.1,0-2,0-2-1.1s0.8-1.6,2-1.7c119.7-4.1,187.9-58.7,188.6-59.3c0.9-0.7,2.2-0.5,2.9,0.4
				s0.6,1.4-0.3,2.1C912.2,2100.3,843,2159.4,721.8,2159.4L721.8,2159.4z"/>
			<g>
				
					<linearGradient id="SVGID_00000094609161269736071420000017750370864902857626_" gradientUnits="userSpaceOnUse" x1="-4221.5771" y1="1897.6755" x2="-4420.123" y2="1745.7577" gradientTransform="matrix(0.9899 0.1417 0.1417 -0.9899 4944.0815 4013.876)">
					<stop  offset="0" style="stop-color:#FEBBBA"/>
					<stop  offset="1" style="stop-color:#FF928E"/>
				</linearGradient>
				<path style="fill:url(#SVGID_00000094609161269736071420000017750370864902857626_);" d="M1036.8,1466.6
					c0,0,23.1,83.9,19.5,125.7c-3.6,41.8,1.5,70-47.7,71.4c-49.1,1.5-86.1-28.2-102.1-72.6c0,0-25.2-68.5-13.7-93.5
					C904.2,1472.7,1036.8,1466.6,1036.8,1466.6z"/>
				
					<linearGradient id="SVGID_00000051380168045768080480000012053977823003384752_" gradientUnits="userSpaceOnUse" x1="4147.0254" y1="2109.5933" x2="4509.3174" y2="1643.1436" gradientTransform="matrix(-0.9899 -0.1417 0.1417 -0.9899 4909.0034 4008.5413)">
					<stop  offset="0" style="stop-color:#09005D"/>
					<stop  offset="1" style="stop-color:#1A0F91"/>
				</linearGradient>
				<path style="fill:url(#SVGID_00000051380168045768080480000012053977823003384752_);" d="M841,1471.2c10.5-6.5,17.3-4.3,21.3-1
					c1.1,0.9,2.5,1,3.6,0.4c0.1-1.2,8.1-87,125-71.9c12.1,1.6,24-4.4,30.1-15c13.8-24.3,40-60.1,59.8-25.2
					c28.2,49.7,36.5,115-43.3,128.5c-4.7,0.8-9.5,1.4-14.3,1.9c-32.9,8.1-70.4,10.7-84.3,14.2c-23.2,5.9-5.5,59.9-5.5,59.9l-6.1-0.9
					l-12.9-1.8c-1.9-0.3-3.7,1.9-3.9,3.7l-3,36.9c-0.1,1.6-1.4,3-3,3.2c-5.9,0.6-21.2,0.1-44.8-17.2c-23-16.9-12-25.5-4.9-28.7
					c2-0.9,2.4-3.5,0.9-5.2C824.4,1518.9,822.8,1482.6,841,1471.2z"/>
				
					<linearGradient id="SVGID_00000134966562621683667260000000610827495497789577_" gradientUnits="userSpaceOnUse" x1="-4246.2476" y1="1929.9161" x2="-4444.7944" y2="1777.9974" gradientTransform="matrix(0.9899 0.1417 0.1417 -0.9899 4944.0815 4013.876)">
					<stop  offset="0" style="stop-color:#FEBBBA"/>
					<stop  offset="1" style="stop-color:#FF928E"/>
				</linearGradient>
				<path style="fill:url(#SVGID_00000134966562621683667260000000610827495497789577_);" d="M927.5,1571.5c0,0-5.9-52.3-30.5-41.4
					s3.6,58.2,21.6,62.7L927.5,1571.5z"/>
				<path class="st2" d="M1058.2,1471.3c-0.4-0.1-0.8-0.3-1-0.6c-0.6-0.7-0.4-1.7,0.3-2.3c16.8-13.3,26-28.7,27.4-45.7
					c2.4-29.6-19.8-54.5-20.1-54.7c-0.6-0.7-0.6-1.7,0.1-2.3c0.7-0.6,1.7-0.6,2.3,0.1c1,1.1,23.4,26.2,20.9,57.2
					c-1.5,18-11.1,34.1-28.7,48C1059.1,1471.2,1058.6,1471.3,1058.2,1471.3z"/>
			</g>
			
				<linearGradient id="SVGID_00000082355750176335319850000008610848691095398559_" gradientUnits="userSpaceOnUse" x1="42.7697" y1="1990.3938" x2="42.645" y2="1990.2002" gradientTransform="matrix(1 0 0 -1 1016.0297 3710)">
				<stop  offset="0" style="stop-color:#53EAC9"/>
				<stop  offset="0.9964" style="stop-color:#45AED8"/>
			</linearGradient>
			<path style="fill:url(#SVGID_00000082355750176335319850000008610848691095398559_);" d="M1058.9,1719.4
				C1058.9,1719.4,1058.9,1719.4,1058.9,1719.4S1058.9,1719.4,1058.9,1719.4z"/>
		</g>
	</g>
</g>
</svg>
